<svg width="167" height="35" viewBox="0 0 167 35" fill="black" xmlns="http://www.w3.org/2000/svg">
    <path d="M47.37 6.5H48.33C49.91 6.5 51.07 6.87 51.81 7.61C52.55 8.33 52.92 9.4 52.92 10.82C52.92 11.64 52.68 12.43 52.2 13.19C51.72 13.93 51.14 14.43 50.46 14.69C52.18 14.97 53.51 15.69 54.45 16.85C55.39 18.01 55.86 19.53 55.86 21.41C55.86 22.91 55.53 24.24 54.87 25.4C54.21 26.54 53.3 27.43 52.14 28.07C51 28.69 49.73 29 48.33 29H47.37V6.5ZM48.57 14.42C49.53 14.42 50.34 14.07 51 13.37C51.66 12.67 51.99 11.81 51.99 10.79C51.99 9.65 51.71 8.79 51.15 8.21C50.61 7.63 49.75 7.34 48.57 7.34H48.33V14.42H48.57ZM48.57 28.16C49.75 28.16 50.82 27.88 51.78 27.32C52.74 26.74 53.5 25.94 54.06 24.92C54.62 23.9 54.9 22.75 54.9 21.47C54.9 19.41 54.35 17.86 53.25 16.82C52.17 15.76 50.61 15.23 48.57 15.23H48.33V28.16H48.57ZM70.3226 29.6C68.2226 29.6 66.2926 29.09 64.5326 28.07C62.7726 27.03 61.3726 25.61 60.3326 23.81C59.3126 21.99 58.8026 19.95 58.8026 17.69C58.8026 15.51 59.3326 13.52 60.3926 11.72C61.4726 9.92 62.9026 8.5 64.6826 7.46C66.4826 6.42 68.3926 5.9 70.4126 5.9C71.8126 5.9 72.9226 6.03 73.7426 6.29C74.5626 6.53 75.5126 6.96 76.5926 7.58V8.69C75.5726 7.99 74.6226 7.5 73.7426 7.22C72.8826 6.92 71.8026 6.77 70.5026 6.77C68.5226 6.77 66.7126 7.28 65.0726 8.3C63.4526 9.3 62.1626 10.65 61.2026 12.35C60.2626 14.03 59.7926 15.84 59.7926 17.78C59.7926 19.74 60.2726 21.56 61.2326 23.24C62.1926 24.92 63.4626 26.26 65.0426 27.26C66.6426 28.24 68.3626 28.73 70.2026 28.73C71.5226 28.73 72.6726 28.58 73.6526 28.28C74.6326 27.96 75.6126 27.47 76.5926 26.81V27.92C75.6326 28.5 74.6426 28.92 73.6226 29.18C72.6226 29.46 71.5226 29.6 70.3226 29.6ZM80.8563 6.5H88.9263V7.37H81.8463V19.61H87.7563V20.48H81.8463V28.13H88.9263V29H80.8563V6.5ZM91.957 6.5H99.967V7.37H92.947V29H91.957V6.5ZM97.1145 28.13H98.7645L109.594 5.99L120.424 28.13H121.864V31.91H120.934V29H97.9845V31.91H97.1145V28.13ZM119.404 28.13L109.504 8.06L99.6945 28.13H119.404ZM146.33 29H145.28L141.02 20.42H129.08L124.91 29H123.86L135.08 5.96L146.33 29ZM140.66 19.55L135.02 8.12L129.5 19.55H140.66ZM162.686 20.84H162.296C160.096 20.84 158.366 20.21 157.106 18.95C155.846 17.67 155.216 15.91 155.216 13.67C155.216 12.35 155.536 11.14 156.176 10.04C156.836 8.94 157.726 8.08 158.846 7.46C159.966 6.82 161.196 6.5 162.536 6.5H163.826V29H162.866V21.89L156.176 29H154.946L162.686 20.84ZM162.866 19.97V7.37H162.476C161.316 7.37 160.256 7.65 159.296 8.21C158.336 8.77 157.576 9.54 157.016 10.52C156.456 11.48 156.176 12.54 156.176 13.7C156.176 15.68 156.726 17.22 157.826 18.32C158.926 19.42 160.426 19.97 162.326 19.97H162.866Z"/>
    <path d="M2.55739 4.0001C1.15058 4.0001 5.13001e-05 5.15541 5.13001e-05 6.56805C5.13001e-05 7.82307 0.908425 8.86926 2.09746 9.0875L0.0235405 15.5608C0.00711394 15.6138 -0.000864734 15.6692 7.42163e-05 15.7248V34.0998C0.00101287 34.3896 0.234974 34.6243 0.523603 34.6255H24.3398C24.4864 34.6382 24.6317 34.5885 24.7404 34.4886C24.8488 34.3887 24.9105 34.2475 24.9107 34.0998V15.7248C24.9105 15.6689 24.9013 15.6136 24.884 15.5608L22.7927 9.02477C23.8649 8.72079 24.6592 7.74007 24.6592 6.56799C24.6592 5.16264 23.5243 4.01277 22.1274 4.00094C22.1201 4.00047 22.1131 4 22.1058 4L2.55739 4.0001ZM2.55739 5.05672H19.8171C19.5057 5.48228 19.3152 6.00186 19.3152 6.56811C19.3152 7.1334 19.5048 7.65182 19.8153 8.07643L2.55731 8.07619C1.71489 8.07619 1.05126 7.41403 1.05126 6.56788C1.05126 5.72197 1.71489 5.05648 2.55731 5.05648L2.55739 5.05672ZM21.8686 5.05672H22.1059C22.9483 5.05672 23.6068 5.7219 23.6068 6.56811C23.6068 7.4025 22.9654 8.0552 22.1397 8.07311C22.1235 8.07217 22.1068 8.0717 22.0904 8.07217C22.0728 8.07264 22.0552 8.07405 22.0378 8.07618H21.8684C21.026 8.07618 20.3675 7.41401 20.3675 6.56786C20.3675 5.72195 21.026 5.05646 21.8684 5.05646L21.8686 5.05672ZM3.18996 9.13184H21.1357L19.0794 15.5605C19.0616 15.6133 19.0522 15.6689 19.0517 15.7247V33.5695H1.05128V15.8055L3.18996 9.13184ZM21.9816 9.94102L23.8594 15.8058V33.5697H20.1038V15.8058L21.9816 9.94102ZM3.81773 17.0296C3.67811 17.031 3.54481 17.088 3.4472 17.1882C3.34958 17.2885 3.2956 17.4236 3.29725 17.5638V21.5534C3.29725 23.0355 4.36968 24.2716 5.77366 24.5297V30.0596C5.77976 30.3466 6.01325 30.5759 6.2993 30.5759C6.58512 30.5759 6.81861 30.3464 6.82495 30.0594V24.5346C8.24539 24.2908 9.33206 23.0476 9.33206 21.5531V17.5635L9.33183 17.5638C9.3337 17.4207 9.27762 17.2834 9.17648 17.1827C9.07557 17.0821 8.9383 17.0268 8.79609 17.0296C8.50699 17.0348 8.27609 17.2732 8.2796 17.5638V19.7802H6.84018V17.5638C6.84182 17.4214 6.78644 17.2848 6.68624 17.1842C6.58627 17.0838 6.44993 17.0279 6.30843 17.0296C6.01815 17.0331 5.7856 17.272 5.78889 17.5638V19.7802H4.34946V17.5638C4.35134 17.4214 4.29573 17.2848 4.19576 17.1842C4.09556 17.0838 3.95923 17.0279 3.81773 17.0296ZM13.8632 17.0376C12.2018 17.0376 10.8448 18.3961 10.8448 20.0644V21.5416C10.8448 23.0291 11.924 24.2681 13.3355 24.5198V30.0589L13.3357 30.0591C13.3418 30.3461 13.5753 30.5756 13.8614 30.5756C14.1472 30.5756 14.3809 30.3461 14.387 30.0591V24.52C15.7997 24.2698 16.8787 23.0306 16.8787 21.5418V20.0646C16.8787 18.3963 15.5249 17.0378 13.8635 17.0378L13.8632 17.0376ZM13.8632 18.0932C14.9605 18.0932 15.8271 18.9625 15.8271 20.0644V21.5416C15.8271 22.6434 14.9605 23.5127 13.8632 23.5127C12.7659 23.5127 11.8961 22.6434 11.8961 21.5416V20.0644C11.8961 18.9625 12.7659 18.0932 13.8632 18.0932ZM4.34938 20.8366H8.27928V21.5531C8.27928 22.6472 7.42509 23.511 6.33884 23.5233L6.33907 23.5231C6.32241 23.5216 6.30552 23.5209 6.28886 23.5212H6.28064C5.20094 23.5011 4.34958 22.6425 4.34958 21.5531L4.34938 20.8366Z"/>
</svg>
