<svg width="40" height="40" viewBox="0 0 30 30" fill="none" xmlns="http://www.w3.org/2000/svg">
<g clip-path="url(#clip0_24_1808)">
<rect width="30" height="30" fill="white"/>
<path d="M22.5509 16.2303C22.5113 16.3182 22.4556 16.3991 22.3859 16.4695L17.1685 21.6498C17.0095 21.8186 16.7832 21.9205 16.5414 21.932C16.2997 21.9435 16.0633 21.8639 15.8864 21.711C15.7095 21.5583 15.6074 21.3456 15.6037 21.1218C15.6 20.898 15.6948 20.6825 15.8662 20.5247L20.0803 16.354L8.28056 16.354C7.78808 16.354 7.38867 15.9849 7.38867 15.5298C7.38867 15.0744 7.78808 14.7055 8.28056 14.7055L20.2141 14.7055L15.8661 10.3865C15.7043 10.2264 15.6182 10.0134 15.6267 9.79472C15.6349 9.57577 15.7372 9.36902 15.9106 9.22C16.2707 8.91159 16.8329 8.92999 17.1683 9.26116L22.3858 14.4252C22.4995 14.5406 22.5752 14.6837 22.6043 14.8373C22.8613 14.996 23.0112 15.2664 23.0002 15.5519C22.9893 15.8373 22.8193 16.0971 22.5508 16.2386L22.5509 16.2303Z" fill="#CCCBCB"/>
<path d="M15 29.9999C11.0217 29.9999 7.20634 28.4197 4.39339 25.6066C1.58045 22.7936 -1.04263e-06 18.9782 -1.41895e-06 15C-1.79528e-06 11.0217 1.58045 7.20633 4.39339 4.39339C7.20634 1.58045 11.0218 4.83156e-06 15 4.51015e-06C18.9783 4.18874e-06 22.7937 1.58045 25.6066 4.39339C28.4198 7.20656 30 11.0218 30 15C30 17.6331 29.3068 20.2198 27.9904 22.5C26.674 24.7804 24.7804 26.6739 22.5 27.9904C20.2198 29.307 17.6331 30 14.9999 30L15 29.9999ZM15 1.62151C11.4518 1.62151 8.049 3.03117 5.54011 5.54005C3.03099 8.04894 1.62157 11.452 1.62157 14.9999C1.62157 18.5481 3.03099 21.9509 5.54012 24.4598C8.04901 26.9687 11.4515 28.3781 15 28.3781C18.5482 28.3781 21.951 26.9687 24.4599 24.4598C26.9688 21.9509 28.3782 18.5478 28.3782 14.9999C28.3782 12.6516 27.7601 10.3445 26.5858 8.31071C25.4117 6.27714 23.7228 4.5881 21.689 3.41393C19.6552 2.23981 17.3483 1.62151 14.9998 1.62151L15 1.62151Z" fill="#CCCBCB"/>
</g>
<defs>
<clipPath id="clip0_24_1808">
<rect width="30" height="30" fill="white"/>
</clipPath>
</defs>
</svg>
