<svg width="40" height="40" viewBox="0 0 30 30" fill="none" xmlns="http://www.w3.org/2000/svg">
<g clip-path="url(#clip0_24_1804)">
<rect width="30" height="30" fill="white"/>
<path d="M7.4491 16.2298C7.48867 16.3177 7.54441 16.3986 7.61409 16.469L12.8315 21.6493C12.9905 21.8181 13.2168 21.92 13.4586 21.9315C13.7003 21.943 13.9367 21.8635 14.1136 21.7105C14.2905 21.5578 14.3926 21.3451 14.3963 21.1213C14.4 20.8975 14.3052 20.682 14.1338 20.5242L9.9197 16.3535L21.7194 16.3535C22.2119 16.3535 22.6113 15.9844 22.6113 15.5293C22.6113 15.0739 22.2119 14.705 21.7194 14.705L9.78592 14.705L14.1339 10.386C14.2957 10.2259 14.3818 10.013 14.3733 9.79423C14.3651 9.57528 14.2628 9.36853 14.0894 9.21951C13.7293 8.9111 13.1671 8.9295 12.8317 9.26067L7.61421 14.4247C7.50049 14.5401 7.42483 14.6832 7.39572 14.8368C7.13865 14.9955 6.98884 15.2659 6.9998 15.5514C7.01075 15.8368 7.18071 16.0967 7.44923 16.2381L7.4491 16.2298Z" fill="#CCCBCB"/>
<path d="M15 29.9999C18.9783 29.9999 22.7937 28.4197 25.6066 25.6066C28.4196 22.7936 30 18.9782 30 15C30 11.0217 28.4196 7.20633 25.6066 4.39339C22.7937 1.58045 18.9782 1.01687e-06 15 6.95456e-07C11.0217 3.74042e-07 7.20634 1.58045 4.3934 4.39338C1.58022 7.20656 1.79528e-06 11.0218 1.41895e-06 15C1.16987e-06 17.6331 0.693192 20.2198 2.00961 22.5C3.32602 24.7804 5.21962 26.6739 7.50003 27.9904C9.78021 29.307 12.3669 30 15.0001 30L15 29.9999ZM15 1.62151C18.5482 1.62151 21.951 3.03117 24.4599 5.54005C26.969 8.04894 28.3784 11.452 28.3784 14.9999C28.3784 18.5481 26.969 21.9509 24.4599 24.4598C21.951 26.9687 18.5485 28.3781 15 28.3781C11.4518 28.3781 8.04901 26.9687 5.54012 24.4598C3.03123 21.9509 1.6218 18.5478 1.6218 14.9999C1.6218 12.6516 2.23988 10.3445 3.41423 8.31071C4.58834 6.27714 6.27721 4.58809 8.31102 3.41392C10.3448 2.23981 12.6517 1.62151 15.0002 1.62151L15 1.62151Z" fill="#CCCBCB"/>
</g>
<defs>
<clipPath id="clip0_24_1804">
<rect width="30" height="30" fill="white"/>
</clipPath>
</defs>
</svg>
