<svg width="16" height="18" viewBox="0 0 16 18" fill="none" xmlns="http://www.w3.org/2000/svg">
<path d="M15.1609 7.28408C14.7122 7.28408 14.3414 7.64383 14.3414 8.07924V10.957C14.3414 13.9483 11.8244 16.3906 8.72188 16.3906H7.25847C4.15606 16.3906 1.63895 13.9484 1.63895 10.9381C1.63895 7.92785 4.15596 5.48554 7.25847 5.48554H11.1999L8.62439 8.02258C8.2927 8.32552 8.2927 8.8366 8.62439 9.15859C8.78051 9.31006 8.99516 9.38573 9.20979 9.38573C9.42443 9.38573 9.63906 9.31006 9.79519 9.15859L13.7952 5.27745C14.1269 4.9745 14.1269 4.46343 13.7952 4.14144L9.79519 0.241375C9.4635 -0.0804583 8.95624 -0.0804583 8.62439 0.241375C8.2927 0.544323 8.2927 1.0554 8.62439 1.37738L11.2195 3.89539H7.27805C3.25854 3.89539 0 7.05709 0 10.9572C0 14.8572 3.25854 18 7.25854 18H8.72195C12.7415 18 16 14.8383 16 10.9572V8.07941C16 7.6251 15.6292 7.28425 15.1609 7.28425V7.28408Z" fill="#FF6161"/>
</svg>
