<svg width="38" height="38" viewBox="0 0 38 38" fill="none" xmlns="http://www.w3.org/2000/svg">
<path d="M36.5147 6.46252C36.0365 5.23087 35.399 4.1876 34.3557 3.14432C33.3124 2.10104 32.2691 1.46348 31.0375 0.985315C29.8493 0.521637 28.4728 0.202858 26.4876 0.115918C24.488 0.0289781 23.8505 0 18.75 0C13.6495 0 13.012 0.0144882 11.0124 0.115918C9.01275 0.202858 7.6507 0.521637 6.46252 0.985315C5.23087 1.46348 4.1876 2.10104 3.14432 3.14432C2.10104 4.1876 1.46349 5.23087 0.985317 6.46252C0.521639 7.65069 0.20286 9.02724 0.11592 11.0124C0.0289803 13.012 0 13.6495 0 18.75C0 23.8505 0.0144904 24.488 0.11592 26.4876C0.20286 28.4872 0.521639 29.8493 0.985317 31.0375C1.46349 32.2691 2.10104 33.3124 3.14432 34.3557C4.1876 35.399 5.23087 36.0365 6.46252 36.5147C7.6507 36.9784 9.02724 37.2971 11.0124 37.3841C13.012 37.471 13.6495 37.5 18.75 37.5C23.8505 37.5 24.488 37.4855 26.4876 37.3841C28.4873 37.2971 29.8493 36.9784 31.0375 36.5147C32.2691 36.0365 33.3124 35.399 34.3557 34.3557C35.399 33.3124 36.0365 32.2691 36.5147 31.0375C36.9784 29.8493 37.2971 28.4728 37.3841 26.4876C37.471 24.488 37.5 23.8505 37.5 18.75C37.5 13.6495 37.4855 13.012 37.3841 11.0124C37.2971 9.01275 36.9784 7.65069 36.5147 6.46252ZM34.0079 26.3282C33.921 28.154 33.6167 29.1538 33.3559 29.8058C33.0226 30.6752 32.6024 31.3128 31.9504 31.9648C31.2983 32.6169 30.6752 33.0226 29.7913 33.3704C29.1248 33.6312 28.1395 33.9355 26.3138 34.0224C24.3286 34.1094 23.749 34.1383 18.7355 34.1383C13.722 34.1383 13.1279 34.1238 11.1573 34.0224C9.33153 33.9355 8.33172 33.6312 7.67968 33.3704C6.81028 33.0371 6.17272 32.6169 5.52067 31.9648C4.86863 31.3128 4.46291 30.6897 4.11515 29.8058C3.85433 29.1393 3.55004 28.154 3.4631 26.3282C3.37616 24.3431 3.34718 23.749 3.34718 18.75C3.34718 13.751 3.36167 13.1424 3.4631 11.1718C3.55004 9.34602 3.85433 8.34622 4.11515 7.69417C4.44842 6.82477 4.86863 6.18721 5.52067 5.53516C6.17272 4.88311 6.79579 4.4774 7.67968 4.12964C8.34621 3.86882 9.33153 3.56453 11.1573 3.47759C13.1424 3.39065 13.7365 3.36167 18.7355 3.36167C23.7345 3.36167 24.3431 3.37616 26.3138 3.47759C28.1395 3.56453 29.1393 3.86882 29.7913 4.12964C30.6607 4.46291 31.2983 4.88311 31.9504 5.53516C32.6024 6.18721 33.0081 6.81028 33.3559 7.69417C33.6167 8.3607 33.921 9.34602 34.0079 11.1718C34.0949 13.1569 34.1238 13.751 34.1238 18.75C34.1238 23.749 34.0949 24.3576 34.0079 26.3282Z" fill="url(#paint0_radial_1_816)" fill-opacity="0.75"/>
<path d="M18.7356 9.11426C13.4178 9.11426 9.09982 13.4323 9.09982 18.7501C9.09982 24.0679 13.4178 28.3859 18.7356 28.3859C24.0535 28.3859 28.3715 24.0679 28.3715 18.7501C28.3715 13.4323 24.0535 9.11426 18.7356 9.11426ZM18.7356 25.0097C15.287 25.0097 12.476 22.2132 12.476 18.7501C12.476 15.3015 15.2725 12.4904 18.7356 12.4904C22.1987 12.4904 24.9953 15.287 24.9953 18.7501C24.9953 22.1987 22.1843 25.0097 18.7356 25.0097Z" fill="url(#paint1_radial_1_816)" fill-opacity="0.75"/>
<path d="M28.7479 10.9833C29.9883 10.9833 30.9939 9.9778 30.9939 8.7374C30.9939 7.497 29.9883 6.49146 28.7479 6.49146C27.5075 6.49146 26.502 7.497 26.502 8.7374C26.502 9.9778 27.5075 10.9833 28.7479 10.9833Z" fill="url(#paint2_radial_1_816)" fill-opacity="0.75"/>
<defs>
<radialGradient id="paint0_radial_1_816" cx="0" cy="0" r="1" gradientUnits="userSpaceOnUse" gradientTransform="translate(10.8781 37.4216) scale(37.8345)">
<stop stop-color="#FFD776"/>
<stop offset="0.2463" stop-color="#F3A554"/>
<stop offset="0.3793" stop-color="#F15C3C"/>
<stop offset="0.5394" stop-color="#D94867"/>
<stop offset="0.6995" stop-color="#C32F87"/>
<stop offset="0.9122" stop-color="#7D63A7"/>
<stop offset="0.9852" stop-color="#5C6CB3"/>
</radialGradient>
<radialGradient id="paint1_radial_1_816" cx="0" cy="0" r="1" gradientUnits="userSpaceOnUse" gradientTransform="translate(14.7008 28.3379) scale(19.4285)">
<stop stop-color="#FFD776"/>
<stop offset="0.2463" stop-color="#F3A554"/>
<stop offset="0.3793" stop-color="#F15C3C"/>
<stop offset="0.607" stop-color="#D94867"/>
<stop offset="0.8346" stop-color="#C32F87"/>
<stop offset="0.9577" stop-color="#7D63A7"/>
<stop offset="1" stop-color="#5C6CB3"/>
</radialGradient>
<radialGradient id="paint2_radial_1_816" cx="0" cy="0" r="1" gradientUnits="userSpaceOnUse" gradientTransform="translate(27.8093 10.9733) scale(4.54014)">
<stop stop-color="#5F6DB3"/>
<stop offset="1" stop-color="#5C6CB3"/>
</radialGradient>
</defs>
</svg>
