<svg width="37" height="36" viewBox="0 0 37 36" fill="none" xmlns="http://www.w3.org/2000/svg">
<path d="M18.375 0C8.22741 0 0 8.0595 0 18C0 21.3768 0.968273 24.5251 2.61987 27.2256L0.16449 36L9.31311 33.6475C11.9887 35.1376 15.0774 36 18.375 36C28.5226 36 36.75 27.9405 36.75 18C36.75 8.0595 28.5226 0 18.375 0ZM12.0855 9.60352C12.3841 9.60352 12.6909 9.60173 12.9558 9.61523C13.2835 9.62273 13.6402 9.64624 13.9816 10.3857C14.3874 11.2647 15.271 13.4699 15.3843 13.6934C15.4976 13.9169 15.5779 14.1802 15.4202 14.4727C15.2701 14.7727 15.1921 14.9542 14.9716 15.2197C14.7434 15.4777 14.4934 15.7982 14.2867 15.9932C14.0585 16.2167 13.8229 16.4617 14.0863 16.9072C14.3497 17.3527 15.2644 18.8132 16.6165 19.9922C18.3544 21.5132 19.8208 21.9806 20.2771 22.2041C20.7334 22.4276 20.9977 22.3928 21.261 22.0928C21.5321 21.8003 22.3993 20.7966 22.7056 20.3496C23.0042 19.9026 23.309 19.98 23.7224 20.127C24.142 20.274 26.3794 21.3536 26.8358 21.5771C27.2921 21.8006 27.5912 21.9113 27.7061 22.0928C27.824 22.2803 27.8241 23.1729 27.4459 24.2139C27.0676 25.2534 25.2104 26.2586 24.3774 26.3291C23.5367 26.4056 22.7522 26.6992 18.9133 25.2188C14.2828 23.4323 11.3626 18.7863 11.1345 18.4863C10.9063 18.1938 9.28021 16.0709 9.28021 13.8809C9.28021 11.6834 10.4564 10.6072 10.8683 10.1602C11.2878 9.71316 11.7793 9.60352 12.0855 9.60352Z" fill="#00A13A"/>
</svg>
