<svg width="90" height="145" viewBox="0 0 90 145" fill="none" xmlns="http://www.w3.org/2000/svg">
<path d="M19.668 75.3242L5.21484 71.6133L12.3438 0.8125H85.293V17.5117H27.6758L23.3789 56.1836C25.9831 54.6862 29.2708 53.2865 33.2422 51.9844C37.2786 50.6823 41.901 50.0312 47.1094 50.0312C53.6849 50.0312 59.5768 51.1706 64.7852 53.4492C69.9935 55.6628 74.4206 58.8529 78.0664 63.0195C81.7773 67.1862 84.6094 72.1992 86.5625 78.0586C88.5156 83.918 89.4922 90.4609 89.4922 97.6875C89.4922 104.523 88.5482 110.806 86.6602 116.535C84.8372 122.264 82.0703 127.277 78.3594 131.574C74.6484 135.806 69.9609 139.094 64.2969 141.438C58.6979 143.781 52.0898 144.953 44.4727 144.953C38.7435 144.953 33.3073 144.172 28.1641 142.609C23.0859 140.982 18.5286 138.54 14.4922 135.285C10.5208 131.965 7.26562 127.863 4.72656 122.98C2.2526 118.033 0.690104 112.238 0.0390625 105.598H17.2266C18.0078 110.936 19.5703 115.428 21.9141 119.074C24.2578 122.72 27.3177 125.487 31.0938 127.375C34.9349 129.198 39.3945 130.109 44.4727 130.109C48.7695 130.109 52.5781 129.361 55.8984 127.863C59.2188 126.366 62.0182 124.217 64.2969 121.418C66.5755 118.618 68.3008 115.233 69.4727 111.262C70.7096 107.29 71.3281 102.831 71.3281 97.8828C71.3281 93.3906 70.7096 89.224 69.4727 85.3828C68.2357 81.5417 66.3802 78.1888 63.9062 75.3242C61.4974 72.4596 58.5352 70.2461 55.0195 68.6836C51.5039 67.056 47.4674 66.2422 42.9102 66.2422C36.8555 66.2422 32.2656 67.056 29.1406 68.6836C26.0807 70.3112 22.9232 72.5247 19.668 75.3242Z" fill="black"/>
</svg>
