<svg width="50" height="50" viewBox="0 0 50 50" fill="none" xmlns="http://www.w3.org/2000/svg">
<rect width="50" height="50" fill="white"/>
<path fill-rule="evenodd" clip-rule="evenodd" d="M24.8359 4C13.2666 4 4 13.4907 4 24.9996C4 36.5809 13.3339 45.9992 24.8359 45.9992H25.1642C36.6662 45.9992 46.0001 36.5809 46.0001 24.9996C46.0001 13.4907 36.7344 4 25.1642 4H24.8359ZM25.7904 5.92388C28.5866 6.01477 31.2232 6.71588 33.5759 7.89276L32.9048 9.05592C32.6411 9.51301 32.7979 10.0973 33.2553 10.3609C33.7124 10.6246 34.2967 10.4678 34.5603 10.0103L35.2314 8.83218C37.5059 10.276 39.4614 12.1886 40.9435 14.4401L39.8249 15.0813C39.3678 15.3493 39.2144 15.9369 39.482 16.3939C39.7497 16.851 40.3373 17.0045 40.7943 16.7368L41.8979 16.0807C43.1357 18.4397 43.9004 21.076 44.0605 23.8808H42.7032H42.7036C42.4499 23.8804 42.2065 23.9806 42.0271 24.1597C41.8476 24.3389 41.7468 24.5819 41.7468 24.8356C41.7468 25.0889 41.8476 25.3319 42.0271 25.511C42.2065 25.6901 42.4499 25.7903 42.7036 25.79H44.0759C43.9637 28.5794 43.2496 31.2065 42.0774 33.5605L40.8247 32.8448L40.8243 32.8445C40.6885 32.7636 40.5347 32.7173 40.3769 32.7103C39.9328 32.6883 39.5326 32.9756 39.4115 33.4034C39.2903 33.8312 39.4804 34.2859 39.8699 34.5L41.1526 35.2307C39.6881 37.5545 37.7312 39.5369 35.4405 41.0324L34.6948 39.7497L34.6945 39.75C34.5214 39.4367 34.1871 39.2466 33.8296 39.2576C33.4904 39.2673 33.1818 39.4564 33.019 39.754C32.8562 40.052 32.8638 40.4138 33.039 40.7044L33.7847 42.0022C31.3731 43.2466 28.6655 43.982 25.7904 44.0752V42.7029C25.7948 42.4445 25.6939 42.1955 25.5111 42.0128C25.3284 41.8303 25.0793 41.7294 24.821 41.7334C24.568 41.7374 24.3266 41.8416 24.1505 42.0234C23.9744 42.2052 23.8775 42.4499 23.8815 42.7029V44.0602C21.0874 43.92 18.4564 43.1726 16.111 41.9422L16.8567 40.6594C17.0345 40.3645 17.0392 39.9963 16.8694 39.6966C16.6993 39.3967 16.381 39.2119 16.0364 39.2129C15.6892 39.2129 15.3693 39.4013 15.2011 39.705L14.4704 40.9727C12.2069 39.4749 10.2797 37.4964 8.8329 35.186L10.1306 34.4253H10.1303C10.5068 34.2176 10.6979 33.7835 10.597 33.3653C10.4958 32.9475 10.1276 32.6485 9.69783 32.6356C9.51473 32.6292 9.3333 32.6758 9.17583 32.7697L7.8931 33.5154C6.73488 31.1734 6.05078 28.5603 5.93922 25.7899H7.29652C7.5502 25.7902 7.79355 25.69 7.973 25.5109C8.15244 25.3318 8.25331 25.0888 8.25331 24.8355C8.25331 24.5818 8.15244 24.3387 7.973 24.1596C7.79355 23.9805 7.5502 23.8803 7.29652 23.8807H5.95421C6.11302 21.0995 6.85275 18.4835 8.07224 16.1401L9.22083 16.7963H9.22049C9.67792 17.06 10.2622 16.9032 10.5255 16.4461C10.7891 15.9887 10.6323 15.4044 10.1752 15.1411L9.04166 14.4849C10.5074 12.2455 12.4301 10.3385 14.6795 8.89201L15.3506 10.0406L15.3503 10.0403C15.4608 10.2876 15.6712 10.4767 15.9289 10.5599C16.1869 10.6432 16.4679 10.6125 16.7023 10.4764C16.9363 10.3402 17.1018 10.1108 17.1567 9.84551C17.212 9.58018 17.1517 9.30386 16.9909 9.0858L16.3347 7.93722C18.6168 6.77866 21.173 6.07487 23.8815 5.93876V7.29607C23.8809 7.54942 23.9814 7.79277 24.1602 7.97221C24.3393 8.15165 24.5827 8.25253 24.836 8.25253C25.0897 8.25253 25.3327 8.15165 25.5118 7.97221C25.6909 7.79277 25.7911 7.54942 25.7905 7.29607L25.7904 5.92388Z" fill="#676666"/>
<path fill-rule="evenodd" clip-rule="evenodd" d="M24.9859 14.8276C24.7329 14.8316 24.4916 14.9362 24.3155 15.1179C24.139 15.2997 24.0425 15.5441 24.0465 15.7971V24.9248C24.0418 24.9793 24.0418 25.0343 24.0465 25.0889V25.1035C24.0498 25.1338 24.0548 25.1634 24.0611 25.1931V25.2081C24.0701 25.233 24.0798 25.258 24.0907 25.2823V25.2973C24.0997 25.3226 24.1094 25.3476 24.1204 25.3719V25.3865C24.1344 25.4121 24.149 25.4371 24.1653 25.4611V25.4761C24.1793 25.4964 24.1943 25.5163 24.2103 25.5356C24.2282 25.5666 24.2482 25.5966 24.2698 25.6252C24.2888 25.6458 24.3088 25.6658 24.3294 25.6848C24.3344 25.6898 24.3391 25.6948 24.3441 25.6994C24.3631 25.7204 24.383 25.7404 24.404 25.7594H24.4187C24.438 25.775 24.4579 25.79 24.4783 25.804H24.4932C24.5122 25.8249 24.5322 25.8449 24.5528 25.8639H24.5675C24.5921 25.8746 24.6167 25.8845 24.642 25.8932C24.647 25.8935 24.652 25.8935 24.657 25.8932C24.8308 25.9674 25.0229 25.9881 25.2087 25.9531H38.4825C38.7362 25.9535 38.9796 25.8532 39.159 25.6741C39.3385 25.495 39.4393 25.252 39.4393 24.9983C39.4393 24.745 39.3385 24.502 39.159 24.3228C38.9796 24.1437 38.7362 24.0435 38.4825 24.0439H25.9544V15.7963C25.9587 15.538 25.8578 15.289 25.6751 15.1062C25.4923 14.9234 25.2433 14.8229 24.9849 14.8269L24.9859 14.8276Z" fill="#676666"/>
</svg>
