<svg width="45" height="45" viewBox="0 0 45 45" fill="none" xmlns="http://www.w3.org/2000/svg">
<path d="M44.9944 37.9914C44.9916 37.9097 44.9753 37.829 44.9462 37.7524C44.9393 37.7331 44.9331 37.713 44.9244 37.6936C44.9158 37.6742 44.9168 37.6679 44.9106 37.6555L37.2413 23.0843V21.2153C37.3303 21.259 37.4214 21.2985 37.5143 21.3331C38.278 21.5811 39.1093 21.5108 39.8204 21.1385L39.8367 21.1298C40.2291 20.9144 40.5554 20.5964 40.7815 20.2102C41.0077 19.8237 41.1248 19.3834 41.1206 18.9356V17.7534C41.1231 17.3329 41.0205 16.9187 40.8228 16.5477C39.7858 14.6018 38.5876 12.7463 37.2413 11.0003V3.10346C37.2413 2.89772 37.1595 2.70029 37.0141 2.55482C36.8686 2.40934 36.6712 2.3276 36.4654 2.3276H27.9542C26.8513 1.59053 25.7122 0.909943 24.5404 0.287835C24.1871 0.098374 23.7922 -0.000688029 23.3915 3.59684e-06H21.7521C21.3022 0.000696286 20.8627 0.134046 20.4882 0.38343C20.1142 0.632469 19.8215 0.986802 19.6473 1.4011C19.5264 1.6962 19.4561 2.00932 19.4391 2.32761H8.53447C8.10601 2.32761 7.7586 2.67502 7.7586 3.10347V23.0844L0.089362 37.6555C0.0831274 37.668 0.0807029 37.6811 0.0755073 37.6936C0.0699655 37.7061 0.0606138 37.7331 0.0536869 37.7525C0.0245925 37.829 0.00831281 37.9097 0.00554187 37.9915C0.00554187 38.0008 0 38.0077 0 38.0171V44.224C0 44.4297 0.0817431 44.6272 0.227217 44.7726C0.37269 44.9181 0.570121 44.9999 0.775862 44.9999H44.2241C44.4299 44.9999 44.6273 44.9181 44.7728 44.7726C44.9183 44.6272 45 44.4297 45 44.224V38.0171C45 38.0077 44.9954 38.0008 44.9944 37.9914ZM31.3676 29.9637V24.7249C31.3679 24.0097 30.9935 23.3467 30.3804 22.9778C29.7677 22.609 29.0064 22.5882 28.3743 22.9235L27.223 23.5341H27.2174C27.1786 23.5542 27.1499 23.5861 27.1135 23.6117C26.6826 23.8694 26.3657 24.2816 26.2275 24.7648C26.1787 24.9414 26.1537 25.1243 26.1537 25.3079V28.8156C26.1544 28.8918 26.135 28.9669 26.098 29.0334C26.0723 29.0788 26.0387 29.1193 25.9986 29.1529C25.9459 29.1924 25.8857 29.2205 25.8219 29.236C25.7606 29.2554 25.6958 29.2606 25.6325 29.2513C25.5815 29.2426 25.5331 29.2225 25.4904 29.1931C25.3502 29.0875 25.2681 28.9215 25.2695 28.7456V27.481C25.2698 27.2022 25.2068 26.9271 25.0855 26.6764C24.9744 26.4419 24.813 26.2348 24.6124 26.0702C24.3419 25.8489 24.0083 25.7187 23.6596 25.6989C23.5719 25.6664 23.4795 25.6501 23.3863 25.6508C23.2605 25.6445 23.1352 25.6698 23.0219 25.7242C22.9845 25.7429 22.9263 25.7737 22.856 25.8125L22.662 25.9189L21.9638 26.2992H21.9634C21.6998 26.4467 21.4747 26.6542 21.3057 26.9043C21.2793 26.9424 21.2437 26.9725 21.2194 27.012V27.0123C21.1512 27.1703 21.0836 27.3286 21.0161 27.4872C20.9697 27.6569 20.9468 27.8325 20.9479 28.0085V31.4223C20.9479 31.6367 20.7743 31.8102 20.5599 31.8102C20.3455 31.8102 20.172 31.6367 20.172 31.4223V29.8782C20.1696 29.766 20.1554 29.6541 20.1294 29.5446C20.1238 29.5214 20.1294 29.4965 20.12 29.474C20.0868 29.3496 20.0379 29.2298 19.9749 29.1172L19.9704 29.1048C19.9143 29.0105 19.8481 28.9226 19.7733 28.8426C19.7577 28.8239 19.747 28.8024 19.73 28.7851H19.7297C19.6621 28.7213 19.5894 28.6635 19.5118 28.6122C19.4768 28.5873 19.4491 28.5554 19.411 28.5346H19.4062C19.3369 28.4979 19.2652 28.4668 19.1914 28.4408C19.0726 28.375 18.9393 28.3393 18.8035 28.3376C18.7522 28.3268 18.7003 28.3189 18.6483 28.3133C18.5635 28.3157 18.4786 28.3244 18.3951 28.3396C18.3477 28.3466 18.3006 28.3441 18.2538 28.3552C18.2074 28.366 18.1762 28.3864 18.1381 28.3985L18.1385 28.3989C18.0484 28.4242 17.9604 28.4574 17.8763 28.4979L7.26424 34.1198C7.19428 34.1579 6.98264 34.0772 6.98264 33.9359V33.9362C6.98334 33.903 6.98992 33.87 7.00204 33.8392L21.8206 5.63774C21.8781 5.66892 21.9363 5.69836 21.9937 5.73023C22.5999 6.06032 23.195 6.40875 23.7782 6.7752C23.8797 6.83893 23.9809 6.90405 24.0816 6.96847C24.6812 7.35502 25.2687 7.75958 25.8443 8.18281C25.9157 8.23476 25.9846 8.28914 26.0553 8.34179C26.6507 8.78861 27.2312 9.25412 27.7972 9.73835L27.8942 9.82528V9.82494C29.0736 10.8481 30.1809 11.951 31.2086 13.1265C31.2387 13.1615 31.2699 13.1947 31.3 13.2297C31.7849 13.7891 32.248 14.3672 32.6965 14.9573C32.7523 15.0349 32.8091 15.1032 32.8642 15.1769C33.2895 15.7484 33.6951 16.3338 34.0816 16.9327C34.1457 17.0311 34.2098 17.1301 34.2742 17.2299C34.6465 17.819 35.0005 18.4189 35.3355 19.03C35.3642 19.0819 35.3913 19.1346 35.4193 19.1851L33.3446 20.2893V20.289C33.2698 20.3358 33.1985 20.3877 33.1313 20.4442C32.9089 20.5678 32.7253 20.7507 32.6013 20.9727C32.5857 20.9966 32.5625 21.0146 32.5476 21.0385C32.459 21.1882 32.3897 21.3485 32.3412 21.5158C32.3412 21.5252 32.3325 21.5321 32.3305 21.5415C32.2795 21.7219 32.2532 21.9086 32.2529 22.096V30.033C32.2543 30.1633 32.1975 30.2873 32.0977 30.3707C32.0644 30.3957 32.0281 30.4168 31.99 30.4334C31.9803 30.4397 31.9706 30.4448 31.9605 30.4497C31.9346 30.4539 31.9089 30.4559 31.883 30.4566C31.8345 30.4701 31.7842 30.4739 31.7347 30.4684C31.6838 30.4597 31.6353 30.44 31.5927 30.4109C31.451 30.306 31.3672 30.1397 31.3676 29.9634L31.3676 29.9637ZM33.804 22.0963C33.8016 21.9138 33.9041 21.7458 34.0676 21.6644L34.2809 21.5504L35.6893 20.8029V22.4998H33.804L33.804 22.0963ZM35.6893 3.87905V9.10605C34.008 7.18511 32.1418 5.43458 30.118 3.87905H35.6893ZM21.0809 1.99623C21.1956 1.72675 21.4595 1.55219 21.7522 1.5515H23.3915C23.537 1.55115 23.6807 1.58717 23.8089 1.6561C25.3364 2.46903 26.8063 3.38623 28.208 4.40035C28.4758 4.59362 28.7387 4.78828 29.0009 4.98986C29.438 5.32203 29.8664 5.66355 30.2866 6.0148C30.6011 6.27699 30.9114 6.54405 31.2176 6.81559C31.5869 7.1436 31.9492 7.47958 32.3038 7.82421C32.6374 8.14599 32.9654 8.474 33.2875 8.80792C33.602 9.13385 33.9106 9.46567 34.2131 9.80342C34.5529 10.1837 34.8854 10.5717 35.211 10.9672V10.9676C36.8337 12.9238 38.2555 15.0391 39.454 17.2808C39.5316 17.4266 39.5714 17.5901 39.5697 17.7553V18.9378C39.5808 19.2703 39.4107 19.5824 39.1253 19.7531L39.1097 19.7608V19.7611C38.7647 19.9433 38.3605 19.9783 37.9892 19.8581C37.6324 19.7452 37.3359 19.4934 37.1662 19.1598V19.155C36.4039 17.6683 35.5345 16.2392 34.5647 14.8784C32.0933 11.3988 29.0113 8.39585 25.468 6.01595L25.406 5.97265C25.3222 5.91688 25.2352 5.86493 25.1507 5.80986V5.80951C24.087 5.10986 22.9849 4.47042 21.8495 3.89407H21.8457C21.7501 3.84592 21.6601 3.78808 21.5763 3.72158L21.543 3.6904V3.69075C21.4741 3.63256 21.41 3.56918 21.3515 3.5006C21.3366 3.48259 21.3234 3.46319 21.3096 3.44553C21.2597 3.3811 21.215 3.31321 21.1752 3.24221C21.1613 3.21727 21.1488 3.19337 21.1371 3.16462H21.1374C21.1038 3.09569 21.0758 3.02434 21.0526 2.95126C20.9483 2.63953 20.9583 2.30113 21.0806 1.99629L21.0809 1.99623ZM9.30997 3.87905H19.7509C19.7609 3.89844 19.7758 3.91542 19.7858 3.93481H19.7855C19.8544 4.0654 19.9323 4.19078 20.0182 4.31028C20.0515 4.356 20.0841 4.40171 20.1197 4.44605H20.1201C20.2046 4.54857 20.2953 4.64521 20.3923 4.73561C20.4256 4.76817 20.4519 4.80627 20.4869 4.8364L19.4201 6.86677L11.2077 22.4993H9.31003L9.30997 3.87905ZM8.99962 24.0515H10.3962L5.62218 33.1295C5.49645 33.3799 5.43064 33.6563 5.43064 33.9365C5.43133 34.4014 5.6163 34.8468 5.94499 35.1755C6.27369 35.5042 6.71913 35.6892 7.18398 35.6899C7.47112 35.6909 7.75375 35.6196 8.00591 35.4827L18.6206 29.8802V31.4226C18.6206 32.1157 18.9902 32.7558 19.5905 33.1025C20.1907 33.4488 20.9298 33.4488 21.5301 33.1025C22.1304 32.7558 22.5 32.1157 22.5 31.4226V28.0088C22.5003 27.8637 22.5817 27.7307 22.7109 27.6642L23.2616 27.3601L23.3205 27.3268L23.4175 27.2742L23.4376 27.2635L23.4379 27.2631C23.4688 27.2607 23.4993 27.2565 23.5294 27.25C23.5658 27.2396 23.6045 27.2486 23.6326 27.2732C23.6898 27.3272 23.7209 27.4027 23.7182 27.4813V28.7476V28.7473C23.7164 29.4785 24.0957 30.1573 24.7188 30.539C24.9218 30.6613 25.1459 30.7448 25.3793 30.785C25.4756 30.7967 25.5722 30.8016 25.6692 30.7995C25.7188 30.7995 25.7686 30.8095 25.8182 30.8071H25.8383L25.8386 30.8075C26.2664 30.7818 26.6747 30.6184 27.0024 30.3419C27.115 30.2467 27.2164 30.1393 27.3048 30.0216L27.3141 30.0067C27.3962 29.8969 27.4665 29.7791 27.5244 29.6551C27.54 29.6225 27.5452 29.5869 27.5587 29.5543C27.6608 29.3222 27.7121 29.0708 27.7083 28.8172V25.3089C27.7135 25.2642 27.7253 25.2206 27.7433 25.1794C27.7717 25.0651 27.8454 24.9674 27.9473 24.9085L29.1024 24.2955C29.2537 24.2161 29.4356 24.2213 29.5821 24.3097C29.7286 24.3976 29.8183 24.5559 29.8187 24.727V29.9655C29.8187 30.5713 30.0792 31.148 30.5339 31.5484C30.5478 31.5609 30.5641 31.5692 30.5783 31.581C30.8356 31.7968 31.1453 31.9412 31.476 31.999C31.5287 32.0077 31.5807 32.0028 31.6312 32.0066V32.007C32.1598 32.0593 32.6873 31.8968 33.095 31.556L33.0995 31.5515C33.1158 31.5377 33.1265 31.5197 33.1428 31.5051L33.1431 31.5048C33.2356 31.4237 33.3205 31.3337 33.3963 31.2363C33.4088 31.2207 33.4157 31.202 33.4265 31.1868C33.4999 31.0874 33.5633 30.9811 33.6166 30.8695C33.6298 30.8408 33.6353 30.8089 33.6467 30.7802C33.6911 30.678 33.7268 30.572 33.7531 30.4636C33.7846 30.3219 33.8002 30.1768 33.8005 30.0317V24.052H36L42.9426 37.2416H2.06041L8.99962 24.0515ZM1.55135 43.448V41.8963H6.20652C6.63497 41.8963 6.98238 41.5489 6.98238 41.1204C6.98238 40.692 6.63497 40.3446 6.20652 40.3446H1.55135V38.7928H43.4479V40.3446H31.0341C30.6056 40.3446 30.2582 40.692 30.2582 41.1204C30.2582 41.5489 30.6056 41.8963 31.0341 41.8963H43.4479V43.448H1.55135Z" fill="#676666"/>
</svg>
