<svg width="28" height="24" viewBox="0 0 28 24" fill="none" xmlns="http://www.w3.org/2000/svg">
    <path d="M27.7548 5.4255C27.484 5.09051 27.0658 4.89685 26.6247 4.90178H7.05615L6.37615 2.59589C6.10579 1.82106 5.58292 1.15021 4.88503 0.683099C4.18691 0.215788 3.35082 -0.0231082 2.50044 0.00176253H0.500088C0.223925 0.00176253 0 0.21687 0 0.482157C0 0.747444 0.223925 0.962551 0.500088 0.962551H2.50044C3.13312 0.937674 3.75757 1.10838 4.28155 1.45002C4.80553 1.79166 5.20137 2.28602 5.41101 2.86013L9.56173 16.8635C9.017 17.004 8.53744 17.3171 8.20144 17.7522C7.87281 18.1612 7.75181 18.6899 7.87147 19.1934C8.03534 19.6335 8.33852 20.0133 8.7386 20.2797C9.13844 20.5458 9.61532 20.685 10.1018 20.6779C9.83681 21.0157 9.69281 21.4271 9.69169 21.85C9.71759 22.447 9.9904 23.0093 10.4494 23.4123C10.9084 23.8155 11.5159 24.0261 12.1372 23.9974C12.7543 24.0261 13.3582 23.8189 13.8163 23.4209C14.2746 23.0229 14.5504 22.4667 14.5825 21.874C14.5809 21.4556 14.4407 21.0485 14.1824 20.7114H18.8933C18.6404 21.0412 18.5035 21.4403 18.5033 21.8499C18.5776 22.6389 19.0592 23.3394 19.7857 23.7147C20.5119 24.0898 21.3857 24.0898 22.112 23.7147C22.8382 23.3394 23.3198 22.6389 23.3941 21.8499C23.3948 21.4304 23.2526 21.0221 22.9892 20.6873H24.2544C24.5305 20.6873 24.7544 20.4724 24.7544 20.2069C24.7544 19.9416 24.5305 19.7265 24.2544 19.7265H10.2016C9.92052 19.746 9.6399 19.683 9.397 19.5457C9.15411 19.4085 8.96032 19.2034 8.84132 18.9579C8.796 18.7327 8.85427 18.4998 9.0014 18.319C9.29609 17.9617 9.73747 17.7444 10.2117 17.7234H23.554C23.8514 17.729 24.1423 17.6408 24.3825 17.4727C24.6227 17.3044 24.7991 17.065 24.8841 16.7914L27.9597 6.4198C28.055 6.0758 27.9793 5.70865 27.7547 5.42557L27.7548 5.4255ZM20.9336 20.6872C21.2852 20.6606 21.6335 20.7674 21.9037 20.9847C22.174 21.2021 22.3446 21.5129 22.379 21.8498C22.2944 22.2852 22.0019 22.6573 21.5891 22.8548C21.1763 23.0523 20.6912 23.0523 20.2784 22.8548C19.8656 22.6573 19.5731 22.2852 19.4885 21.8498C19.5227 21.5129 19.6935 21.2021 19.9636 20.9847C20.234 20.7674 20.5822 20.6606 20.9336 20.6872ZM12.1374 20.6872C12.4964 20.6244 12.8659 20.7177 13.1463 20.9422C13.4265 21.1667 13.5886 21.4994 13.5886 21.8498C13.5886 22.2004 13.4265 22.5328 13.1463 22.7574C12.8659 22.9819 12.4964 23.0754 12.1374 23.0124C11.786 23.0392 11.4375 22.9324 11.1674 22.7149C10.897 22.4975 10.7265 22.1869 10.6921 21.8498C10.7265 21.5129 10.897 21.2021 11.1674 20.9846C11.4375 20.7674 11.786 20.6606 12.1374 20.6872ZM23.9244 16.5511C23.8595 16.6894 23.7117 16.7737 23.5543 16.7626H10.552L10.122 15.3214H24.2845L23.9244 16.5511ZM27.0049 6.17459L24.5694 14.3891H9.86167L7.36123 5.8858H26.6246C26.7537 5.88044 26.8778 5.93384 26.9595 6.02992C26.9954 6.0696 27.012 6.12193 27.0046 6.17404L27.0049 6.17459Z" fill="#676666"/>
</svg>
