<svg width="15" height="9" viewBox="0 0 15 9" fill="none" xmlns="http://www.w3.org/2000/svg">
    <path d="M13.5806 0.244998C12.8312 1.03806 12.0778 1.8353 11.3285 2.62828C10.1303 3.8963 8.93221 5.16425 7.73401 6.43227C7.45752 6.72488 7.18101 7.0175 6.90454 7.31009H8.03862C7.28923 6.51703 6.53589 5.71979 5.78658 4.92681C4.58838 3.65878 3.39026 2.39084 2.19206 1.12281C1.91556 0.830203 1.63906 0.537585 1.36258 0.244998C1.06604 -0.0688208 0.52109 -0.0942635 0.228502 0.244998C-0.0640279 0.584259 -0.0880695 1.1101 0.228502 1.44517L6.90454 8.51026C7.20908 8.83256 7.73006 8.8368 8.03862 8.51026C8.78801 7.7172 9.54135 6.91996 10.2907 6.12698C11.4889 4.85895 12.687 3.59101 13.8852 2.32299C14.1617 2.03038 14.4382 1.73776 14.7147 1.44517C15.0112 1.13135 15.0352 0.554637 14.7147 0.244998C14.3941 -0.0646412 13.8972 -0.0900218 13.5806 0.244998Z" fill="black"/>
</svg>
