<svg width="17" height="18" viewBox="0 0 17 18" fill="none" xmlns="http://www.w3.org/2000/svg">
    <path d="M8.5 17.9907C6.24561 17.9907 4.08368 17.0429 2.48968 15.3559C0.895554 13.669 0 11.381 0 8.99535C0 6.60969 0.895588 4.32166 2.48968 2.63477C4.08368 0.947743 6.24571 0 8.5 0C10.7543 0 12.9163 0.947779 14.5103 2.63477C16.1044 4.32166 17 6.60969 17 8.99535C16.9974 11.3803 16.101 13.6665 14.5076 15.3531C12.9141 17.0396 10.7535 17.988 8.49993 17.9908L8.5 17.9907ZM8.5 0.8314C6.45407 0.8314 4.49178 1.69148 3.04526 3.22248C1.59858 4.75361 0.785853 6.83001 0.785853 8.9951C0.785853 11.1602 1.59858 13.2369 3.04526 14.7677C4.49208 16.2987 6.45414 17.1588 8.5 17.1588C10.5459 17.1588 12.5082 16.2987 13.9547 14.7677C15.4014 13.2366 16.2141 11.1602 16.2141 8.9951C16.2119 6.83065 15.3984 4.75543 13.9521 3.22497C12.506 1.69441 10.5453 0.833502 8.49973 0.831115L8.5 0.8314Z" fill="black"/>
    <path d="M12.5267 9.41122H8.49999C8.39582 9.41122 8.29586 9.36738 8.2222 9.28943C8.14855 9.21148 8.10712 9.1057 8.10712 8.99545V3.3365C8.10712 3.10683 8.2831 2.92073 8.49999 2.92073C8.71688 2.92073 8.89287 3.10683 8.89287 3.3365V8.57961H12.527H12.5269C12.7439 8.57961 12.9197 8.76585 12.9197 8.99538C12.9197 9.22491 12.7439 9.41115 12.5269 9.41115L12.5267 9.41122Z" fill="black"/>
</svg>
