<svg width="12" height="12" viewBox="0 0 12 12" fill="none" xmlns="http://www.w3.org/2000/svg">
    <path d="M6 0C2.68795 0 0 2.68795 0 6C0 9.31205 2.68795 12 6 12C9.31205 12 12 9.31205 12 6C12 2.68795 9.31205 0 6 0ZM8.40905 6.58205H6.58197V8.40903C6.58197 8.7315 6.32249 8.991 6 8.991C5.67751 8.991 5.41803 8.73151 5.41803 8.40903V6.58205H3.59095C3.26847 6.58205 3.00897 6.32257 3.00897 6.00008C3.00897 5.67759 3.26846 5.41811 3.59095 5.41811H5.41792L5.41802 3.59103C5.41802 3.26855 5.67751 3.00905 6 3.00905C6.32248 3.00905 6.58197 3.26854 6.58197 3.59103V5.418H8.40894C8.73142 5.418 8.99092 5.67749 8.99092 5.99997C8.99102 6.32255 8.73007 6.58203 8.40905 6.58203L8.40905 6.58205Z" fill="#B2B2B2"/>
</svg>
