<svg width="9" height="15" viewBox="0 0 9 15" fill="none" xmlns="http://www.w3.org/2000/svg">
<path d="M8.71789 13.5806C7.92483 12.8312 7.12759 12.0778 6.33461 11.3285C5.06659 10.1303 3.79864 8.93221 2.53062 7.73401C2.23801 7.45752 1.94539 7.18101 1.6528 6.90454L1.6528 8.03862C2.44586 7.28923 3.2431 6.53589 4.03608 5.78658C5.30411 4.58838 6.57205 3.39026 7.84008 2.19206C8.13269 1.91556 8.42531 1.63906 8.71789 1.36258C9.03171 1.06604 9.05715 0.52109 8.71789 0.228502C8.37863 -0.0640279 7.85279 -0.0880696 7.51772 0.228502L0.452629 6.90454C0.130335 7.20908 0.126093 7.73006 0.452629 8.03862C1.24569 8.78801 2.04293 9.54135 2.83591 10.2907C4.10394 11.4889 5.37188 12.687 6.6399 13.8852C6.93251 14.1617 7.22513 14.4382 7.51772 14.7147C7.83154 15.0112 8.40825 15.0352 8.71789 14.7147C9.02753 14.3941 9.05291 13.8972 8.71789 13.5806Z" fill="#CCCBCB"/>
</svg>
