<svg width="14" height="14" viewBox="0 0 14 14" fill="none" xmlns="http://www.w3.org/2000/svg">
<path fill-rule="evenodd" clip-rule="evenodd" d="M4.08507 1.97184H2.42213C2.33773 1.97184 2.26926 1.90337 2.26926 1.81897C2.26926 1.73457 2.33773 1.6661 2.42213 1.6661H4.08507C4.16947 1.6661 4.23783 1.73457 4.23783 1.81897C4.23783 1.90337 4.16936 1.97184 4.08507 1.97184ZM6.58724 1.97184H4.92419C4.8399 1.97184 4.77132 1.90337 4.77132 1.81897C4.77132 1.73457 4.83979 1.6661 4.92419 1.6661H6.58724C6.67164 1.6661 6.74001 1.73457 6.74001 1.81897C6.74001 1.90337 6.67153 1.97184 6.58724 1.97184ZM9.08942 1.97184H7.42637C7.34208 1.97184 7.2735 1.90337 7.2735 1.81897C7.2735 1.73457 7.34197 1.6661 7.42637 1.6661H9.08942C9.17371 1.6661 9.24218 1.73457 9.24218 1.81897C9.24218 1.90337 9.17371 1.97184 9.08942 1.97184ZM11.5913 1.97184H9.92869C9.84395 1.97184 9.77581 1.90337 9.77581 1.81897C9.77581 1.73457 9.84395 1.6661 9.92869 1.6661H11.5913C11.676 1.6661 11.7442 1.73457 11.7442 1.81897C11.7442 1.90337 11.676 1.97184 11.5913 1.97184ZM12.9609 13.0797H1.05255C0.480321 13.0797 0.0146267 12.6139 0.0136073 12.0414L1.01731e-06 2.48769C-0.000330845 2.26192 0.0805326 2.06646 0.240044 1.9066C0.399665 1.74709 0.594674 1.66589 0.820455 1.66589H1.58273C1.66746 1.66589 1.73549 1.73437 1.73549 1.81877C1.73549 1.90317 1.66735 1.97164 1.58262 1.97164H0.820458C0.676876 1.97164 0.557741 2.02131 0.4562 2.12285C0.354654 2.2244 0.305538 2.34376 0.305538 2.48745L0.319255 12.0406C0.319808 12.4449 0.648682 12.7739 1.05244 12.7739H12.9608C13.3653 12.7739 13.6941 12.4454 13.6941 12.041V2.70499C13.6941 2.30069 13.3652 1.9718 12.9608 1.9718H12.4304C12.346 1.9718 12.2776 1.90333 12.2776 1.81893C12.2776 1.73453 12.346 1.66606 12.4304 1.66606H12.9608C13.5336 1.66606 13.9998 2.1322 13.9998 2.705V12.041C13.9998 12.6138 13.5336 13.0796 12.9608 13.0796L12.9609 13.0797Z" fill="black"/>
<path fill-rule="evenodd" clip-rule="evenodd" d="M13.8474 3.95967H0.154926C0.0705231 3.95967 0.00205231 3.89119 0.00205231 3.8069C0.00205231 3.72217 0.0705259 3.65381 0.154926 3.65381H13.8474C13.9318 3.65381 14.0001 3.72228 14.0001 3.80702C14.0001 3.89142 13.9317 3.95989 13.8474 3.95978V3.95967Z" fill="black"/>
<path fill-rule="evenodd" clip-rule="evenodd" d="M11.9413 0.305752C11.8327 0.305752 11.7442 0.393916 11.7442 0.502542V2.43382C11.7442 2.54245 11.8327 2.63094 11.9412 2.63094H12.081C12.1896 2.63094 12.2777 2.54245 12.2777 2.43382V0.502429C12.2777 0.393913 12.1896 0.30575 12.0809 0.30575H11.9412L11.9413 0.305752ZM12.081 2.93658H11.9413C11.664 2.93658 11.4386 2.71114 11.4386 2.43381V0.502423C11.4386 0.225436 11.6639 0 11.9412 0H12.081C12.358 0 12.5834 0.225439 12.5834 0.502423V2.4337C12.5834 2.71102 12.3579 2.93646 12.0809 2.93646L12.081 2.93658Z" fill="black"/>
<path fill-rule="evenodd" clip-rule="evenodd" d="M9.43904 0.305752C9.33042 0.305752 9.24225 0.393916 9.24225 0.502542V2.43382C9.24225 2.54245 9.33042 2.63094 9.43893 2.63094H9.57875C9.68727 2.63094 9.77576 2.54245 9.77576 2.43382V0.502429C9.77576 0.393913 9.68727 0.30575 9.57864 0.30575H9.43893L9.43904 0.305752ZM9.57875 2.93658H9.43904C9.16206 2.93658 8.93662 2.71114 8.93662 2.43381V0.502423C8.93662 0.225436 9.16206 0 9.43904 0H9.57886C9.85618 0 10.0815 0.225439 10.0815 0.502423L10.0816 2.4337C10.0816 2.71102 9.85618 2.93646 9.57886 2.93646L9.57875 2.93658Z" fill="black"/>
<path fill-rule="evenodd" clip-rule="evenodd" d="M6.93709 0.305752C6.82846 0.305752 6.7403 0.393916 6.7403 0.502542V2.43382C6.7403 2.54245 6.82846 2.63094 6.93709 2.63094H7.07724C7.18587 2.63094 7.27403 2.54245 7.27403 2.43382V0.502429C7.27403 0.393913 7.18576 0.30575 7.07724 0.30575L6.93709 0.305752ZM7.07713 2.93658H6.93709C6.6601 2.93658 6.43467 2.71114 6.43467 2.43381L6.43478 0.502423C6.43478 0.225436 6.6601 0 6.93709 0H7.07724C7.35423 0 7.57966 0.225439 7.57966 0.502423V2.4337C7.57966 2.71102 7.35422 2.93646 7.07724 2.93646L7.07713 2.93658Z" fill="black"/>
<path fill-rule="evenodd" clip-rule="evenodd" d="M4.43445 0.305752C4.32627 0.305752 4.23766 0.393916 4.23766 0.502542V2.43382C4.23766 2.54245 4.32616 2.63094 4.43445 2.63094H4.57449C4.68312 2.63094 4.77128 2.54245 4.77128 2.43382V0.502429C4.77128 0.393913 4.68312 0.30575 4.57449 0.30575L4.43445 0.305752ZM4.57449 2.93658H4.43445C4.15747 2.93658 3.93203 2.71114 3.93203 2.43381L3.93214 0.502423C3.93214 0.225436 4.15747 0 4.43445 0H4.57449C4.85148 0 5.07691 0.225439 5.07691 0.502423V2.4337C5.07691 2.71102 4.85148 2.93646 4.57449 2.93646L4.57449 2.93658Z" fill="black"/>
<path fill-rule="evenodd" clip-rule="evenodd" d="M1.93284 0.305752C1.82432 0.305752 1.73572 0.393916 1.73572 0.502542V2.43382C1.73572 2.54245 1.82421 2.63094 1.93284 2.63094H2.07266C2.18118 2.63094 2.26934 2.54245 2.26934 2.43382V0.502429C2.26934 0.393913 2.18118 0.30575 2.07255 0.30575H1.93273L1.93284 0.305752ZM2.07266 2.93658H1.93284C1.65552 2.93658 1.43008 2.71114 1.43008 2.43381V0.502423C1.43008 0.225436 1.65541 0 1.93273 0H2.07255C2.34953 0 2.57486 0.225439 2.57486 0.502423V2.4337C2.57486 2.71102 2.34942 2.93646 2.07243 2.93646L2.07266 2.93658Z" fill="black"/>
<path fill-rule="evenodd" clip-rule="evenodd" d="M1.76578 6.60898H3.06477V5.30966H1.76578V6.60898ZM3.21766 6.91462H1.61303C1.5283 6.91462 1.46016 6.84615 1.46016 6.76175L1.46027 5.15667C1.46027 5.07227 1.5283 5.00391 1.61303 5.00391H3.21777C3.30217 5.00391 3.37053 5.07238 3.37053 5.15678V6.76175C3.37053 6.84615 3.30206 6.91462 3.21777 6.91462L3.21766 6.91462Z" fill="black"/>
<path fill-rule="evenodd" clip-rule="evenodd" d="M4.82224 6.60898H6.12122V5.30966H4.82224V6.60898ZM6.27411 6.91462H4.66938C4.58508 6.91462 4.5165 6.84615 4.5165 6.76175V5.15667C4.5165 5.07227 4.58498 5.00391 4.66927 5.00391H6.27401C6.3583 5.00391 6.42677 5.07238 6.42677 5.15678V6.76175C6.42677 6.84615 6.35829 6.91462 6.27401 6.91462L6.27411 6.91462Z" fill="black"/>
<path fill-rule="evenodd" clip-rule="evenodd" d="M7.87915 6.60898H9.17814V5.30966H7.87915V6.60898ZM9.33103 6.91462H7.72641C7.64167 6.91462 7.57353 6.84615 7.57353 6.76175V5.15667C7.57353 5.07227 7.64167 5.00391 7.7263 5.00391H9.33103C9.41533 5.00391 9.4838 5.07238 9.4838 5.15678V6.76175C9.4838 6.84615 9.41532 6.91462 9.33103 6.91462Z" fill="black"/>
<path fill-rule="evenodd" clip-rule="evenodd" d="M10.9356 6.60898H12.2346V5.30966H10.9356V6.60898ZM12.3874 6.91462H10.7828C10.6984 6.91462 10.6299 6.84615 10.6299 6.76175V5.15667C10.6299 5.07227 10.6984 5.00391 10.7826 5.00391H12.3874C12.4718 5.00391 12.5403 5.07238 12.5403 5.15678V6.76175C12.5403 6.84615 12.4718 6.91462 12.3874 6.91462Z" fill="black"/>
<path fill-rule="evenodd" clip-rule="evenodd" d="M1.76578 9.01624H3.06477V7.71725H1.76578V9.01624ZM3.21766 9.32188H1.61303C1.5283 9.32188 1.46016 9.2534 1.46016 9.169L1.46027 7.56426C1.46027 7.47986 1.5283 7.4115 1.61303 7.4115H3.21777C3.30217 7.4115 3.37053 7.47997 3.37053 7.56437V9.169C3.37053 9.2534 3.30206 9.32187 3.21777 9.32187L3.21766 9.32188Z" fill="black"/>
<path fill-rule="evenodd" clip-rule="evenodd" d="M4.82224 9.01624H6.12122V7.71725H4.82224V9.01624ZM6.27411 9.32188H4.66938C4.58508 9.32188 4.5165 9.2534 4.5165 9.169V7.56426C4.5165 7.47986 4.58498 7.4115 4.66927 7.4115H6.27401C6.3583 7.4115 6.42677 7.47997 6.42677 7.56437V9.169C6.42677 9.2534 6.35829 9.32187 6.27401 9.32187L6.27411 9.32188Z" fill="black"/>
<path fill-rule="evenodd" clip-rule="evenodd" d="M7.87915 9.01624H9.17814V7.71725H7.87915V9.01624ZM9.33103 9.32188H7.72641C7.64167 9.32188 7.57353 9.2534 7.57353 9.169V7.56426C7.57353 7.47986 7.64167 7.4115 7.7263 7.4115H9.33103C9.41533 7.4115 9.4838 7.47997 9.4838 7.56437V9.169C9.4838 9.2534 9.41532 9.32188 9.33103 9.32188Z" fill="black"/>
<path fill-rule="evenodd" clip-rule="evenodd" d="M10.9356 9.01624H12.2346V7.71725H10.9356V9.01624ZM12.3874 9.32188H10.7828C10.6984 9.32188 10.6299 9.2534 10.6299 9.169V7.56426C10.6299 7.47986 10.6984 7.4115 10.7826 7.4115H12.3874C12.4718 7.4115 12.5403 7.47997 12.5403 7.56437V9.169C12.5403 9.2534 12.4718 9.32188 12.3874 9.32188Z" fill="black"/>
<path fill-rule="evenodd" clip-rule="evenodd" d="M1.76578 11.4235H3.06477V10.1241H1.76578V11.4235ZM3.21766 11.7289H1.61303C1.5283 11.7289 1.46016 11.6607 1.46016 11.5763L1.46027 9.97124C1.46027 9.88684 1.5283 9.81848 1.61303 9.81848H3.21777C3.30217 9.81848 3.37053 9.88695 3.37053 9.97135V11.5763C3.37053 11.6607 3.30206 11.7289 3.21777 11.7289L3.21766 11.7289Z" fill="black"/>
<path fill-rule="evenodd" clip-rule="evenodd" d="M4.82224 11.4235H6.12122V10.1241H4.82224V11.4235ZM6.27411 11.7289H4.66938C4.58508 11.7289 4.5165 11.6607 4.5165 11.5763V9.97124C4.5165 9.88684 4.58498 9.81848 4.66927 9.81848H6.27401C6.3583 9.81848 6.42677 9.88695 6.42677 9.97135V11.5763C6.42677 11.6607 6.35829 11.7289 6.27401 11.7289L6.27411 11.7289Z" fill="black"/>
<path fill-rule="evenodd" clip-rule="evenodd" d="M7.87915 11.4235H9.17814V10.1241H7.87915V11.4235ZM9.33103 11.7289H7.72641C7.64167 11.7289 7.57353 11.6607 7.57353 11.5763V9.97124C7.57353 9.88684 7.64167 9.81848 7.7263 9.81848H9.33103C9.41533 9.81848 9.4838 9.88695 9.4838 9.97135V11.5763C9.4838 11.6607 9.41532 11.7289 9.33103 11.7289Z" fill="black"/>
</svg>
