<svg width="34" height="34" viewBox="0 0 34 34" fill="none" xmlns="http://www.w3.org/2000/svg">
<path d="M23.2906 25.2032L8.40157 10.3142C7.87335 9.78595 7.87311 8.9294 8.40157 8.40095C8.93002 7.87249 9.78656 7.87272 10.3148 8.40095L25.2038 23.29C25.7321 23.8182 25.7323 24.6748 25.2038 25.2032C24.6754 25.7317 23.8189 25.7315 23.2904 25.203L23.2906 25.2032Z" fill="#D9D9D9"/>
<path d="M8.40168 25.2037C7.87347 24.6755 7.87323 23.8189 8.40168 23.2905L23.2907 8.40143C23.8192 7.87299 24.6757 7.8732 25.204 8.40143C25.7322 8.92966 25.7324 9.7862 25.204 10.3147L10.3149 25.2037C9.78646 25.7322 8.92968 25.7322 8.40145 25.2039L8.40168 25.2037Z" fill="#D9D9D9"/>
</svg>
