<svg width="152" height="149" viewBox="0 0 152 149" fill="none" xmlns="http://www.w3.org/2000/svg">
<path d="M129.264 68.2761C129.832 71.5924 130.147 74.9972 130.147 78.4758C130.147 111.675 103.23 138.587 70.033 138.587C36.8372 138.587 9.92188 111.674 9.92188 78.4727C9.92188 45.2718 36.835 18.3616 70.033 18.3616C77.6361 18.3616 84.9069 19.7886 91.6059 22.3651L94.6281 14.8618L95.05 14.1803C87.1532 11.0655 78.5604 9.33643 69.5532 9.33643C31.1418 9.33761 0 40.4782 0 78.8957C0 117.31 31.1418 148.452 69.5562 148.452C107.971 148.452 139.112 117.31 139.112 78.8957C139.112 74.6919 138.718 70.585 138.004 66.591L129.264 68.2761Z" fill="black"/>
<path d="M105.183 11.5924C105.183 11.5924 122.721 18.2069 131.787 33.8858C131.787 33.8858 137.073 42.0599 139.111 53.0585L152 51.7216C152 51.7216 148.135 32.102 139.961 22.8885C139.961 22.8885 128.515 7.57821 110.085 0L105.183 11.5924Z" fill="black"/>
<path d="M122.392 69.602L72.1871 79.2898C69.9566 79.9594 69.5548 79.2898 69.5548 79.2898C69.0049 77.4326 70.2553 75.3525 70.2553 75.3525L88.9825 28.8765C82.9559 26.5345 76.409 25.2356 69.555 25.2356C39.9218 25.2356 15.8974 49.2594 15.8974 78.8902C15.8974 108.523 39.9212 132.548 69.555 132.548C99.1882 132.548 123.213 108.524 123.213 78.8902C123.213 75.7211 122.925 72.6182 122.394 69.6008L122.392 69.602ZM70.4 33.8848C71.9597 33.8848 73.2244 34.8828 73.2244 36.1142C73.2244 37.348 71.9597 38.3447 70.4 38.3447C68.8439 38.3447 67.5758 37.3468 67.5758 36.1142C67.5769 34.8828 68.8439 33.8848 70.4 33.8848ZM66.3089 46.6671C69.2197 46.6671 71.5794 48.5978 71.5794 50.9776C71.5794 53.3574 69.2197 55.2869 66.3089 55.2869C63.3981 55.2869 61.0384 53.3586 61.0384 50.9776C61.0384 48.5977 63.3981 46.6671 66.3089 46.6671ZM56.7279 55.2869C57.7969 55.2869 58.6598 56.286 58.6598 57.5174C58.6598 58.7488 57.7969 59.748 56.7279 59.748C55.6624 59.748 54.796 58.7488 54.796 57.5174C54.796 56.286 55.6624 55.2869 56.7279 55.2869ZM57.3359 104.481C57.3359 106.534 55.6363 108.197 53.5397 108.197C51.4431 108.197 49.7434 106.534 49.7434 104.481C49.7434 102.429 51.443 100.763 53.5397 100.763C55.6375 100.763 57.3359 102.429 57.3359 104.481ZM44.9875 38.3416C46.4643 38.3416 47.6613 41.1706 47.6613 44.6585C47.6613 48.1489 46.4631 50.9755 44.9875 50.9755C43.5108 50.9755 42.3137 48.1476 42.3137 44.6585C42.3125 41.1706 43.5108 38.3416 44.9875 38.3416ZM23.5854 67.7485C23.5854 66.2587 25.4142 65.0498 27.6696 65.0498C29.9298 65.0498 31.7574 66.2575 31.7574 67.7485C31.7574 69.2383 29.9287 70.4471 27.6696 70.4471C25.4154 70.4459 23.5854 69.2382 23.5854 67.7485ZM25.0728 81.653C25.0728 80.1289 26.5697 78.8904 28.4152 78.8904C30.2641 78.8904 31.7609 80.1289 31.7609 81.653C31.7609 83.1784 30.264 84.4157 28.4152 84.4157C26.5699 84.4157 25.0728 83.1796 25.0728 81.653ZM31.7596 103.143C30.8577 103.143 30.1229 102.144 30.1229 100.912C30.1229 99.6808 30.8565 98.6817 31.7596 98.6817C32.6616 98.6817 33.3964 99.6808 33.3964 100.912C33.3964 102.144 32.6627 103.143 31.7596 103.143ZM34.0624 59.7434C32.7919 59.7434 31.7596 58.7442 31.7596 57.5128C31.7596 56.2814 32.7907 55.2823 34.0624 55.2823C35.3365 55.2823 36.3652 56.2814 36.3652 57.5128C36.3641 58.7442 35.3365 59.7434 34.0624 59.7434ZM38.5957 90.2116C37.3642 90.2116 36.3651 89.1413 36.3651 87.821C36.3651 86.5007 37.3642 85.4281 38.5957 85.4281C39.8271 85.4281 40.8262 86.5008 40.8262 87.821C40.8262 89.1402 39.8271 90.2116 38.5957 90.2116ZM38.1524 71.6315C38.1524 67.0355 41.8786 63.309 46.4749 63.309C51.0709 63.309 54.7973 67.0352 54.7973 71.6315C54.7973 76.2287 51.0712 79.9539 46.4749 79.9539C41.8776 79.9539 38.1524 76.2302 38.1524 71.6315ZM55.3908 124.245C52.2715 124.245 49.7435 122.849 49.7435 121.124C49.7435 119.399 52.2715 118.002 55.3908 118.002C58.5101 118.002 61.0381 119.398 61.0381 121.124C61.0381 122.849 58.5101 124.245 55.3908 124.245ZM62.8337 93.8804C59.0044 92.1879 56.6281 89.1715 57.5241 87.145C58.42 85.1185 62.253 84.8481 66.0786 86.5417C69.908 88.2354 72.2842 91.2506 71.3883 93.2783C70.4935 95.3073 66.6606 95.574 62.8337 93.8804ZM78.8752 120.381C73.453 120.381 69.063 115.989 69.063 110.573C69.063 105.156 73.453 100.764 78.8752 100.764C84.2916 100.764 88.6801 105.157 88.6801 110.573C88.6801 115.989 84.2913 120.381 78.8752 120.381ZM92.993 94.2229C90.4508 94.2229 88.3873 93.0271 88.3873 91.5491C88.3873 90.0724 90.4519 88.8753 92.993 88.8753C95.5388 88.8753 97.6021 90.0736 97.6021 91.5491C97.6021 93.0271 95.5375 94.2229 92.993 94.2229ZM107.174 103.388C104.204 104.97 101.171 105.077 100.398 103.63C99.6288 102.18 101.41 99.7233 104.38 98.1411C107.347 96.5589 110.383 96.451 111.152 97.8993C111.927 99.3476 110.144 101.804 107.174 103.388ZM108.451 84.4143C105.906 84.4143 103.846 83.177 103.846 81.6517C103.846 80.1275 105.907 78.889 108.451 78.889C110.997 78.889 113.06 80.1275 113.06 81.6517C113.06 83.1782 110.996 84.4143 108.451 84.4143Z" fill="black"/>
<path d="M123.757 31.8823C123.757 31.8823 113.28 20.8826 102.652 17.986L85.4133 61.085C85.4133 61.085 84.8954 63.2409 84.8954 64.6537C84.8954 64.6537 84.5232 65.7666 89.5011 64.2803L133.938 54.7691C133.941 54.7668 134.234 46.518 123.757 31.8807V31.8823ZM116.736 31.9546C117.658 31.9546 118.405 32.8874 118.405 34.0358C118.405 35.1866 117.659 36.117 116.736 36.117C115.814 36.117 115.064 35.1855 115.064 34.0358C115.063 32.8862 115.814 31.9546 116.736 31.9546ZM100.721 55.2885C98.9975 55.2885 97.6015 54.3249 97.6015 53.1338C97.6015 51.9427 98.9976 50.978 100.721 50.978C102.444 50.978 103.844 51.9415 103.844 53.1338C103.844 54.3249 102.443 55.2885 100.721 55.2885ZM103.917 33.8864C102.89 33.8864 102.062 33.02 102.062 31.9534C102.062 30.8879 102.888 30.0215 103.917 30.0215C104.944 30.0215 105.776 30.8879 105.776 31.9534C105.774 33.0224 104.941 33.8864 103.917 33.8864ZM115.063 53.134C111.413 53.134 108.448 50.5325 108.448 47.3265C108.448 44.1182 111.411 41.5189 115.063 41.5189C118.714 41.5189 121.677 44.1181 121.677 47.3265C121.677 50.5323 118.714 53.134 115.063 53.134Z" fill="black"/>
</svg>
