<svg width="14" height="14" viewBox="0 0 14 14" fill="none" xmlns="http://www.w3.org/2000/svg">
<path d="M7 13.7576C5.14344 13.7576 3.36303 13.0328 2.05033 11.7428C0.737515 10.4528 0 8.70312 0 6.8788C0 5.05447 0.737543 3.3048 2.05033 2.01483C3.36303 0.724745 5.14353 0 7 0C8.85647 0 10.637 0.724772 11.9497 2.01483C13.2625 3.3048 14 5.05447 14 6.8788C13.9978 8.70258 13.2597 10.4509 11.9474 11.7406C10.6351 13.0303 8.85586 13.7555 6.99994 13.7576L7 13.7576ZM7 0.635776C5.31512 0.635776 3.69911 1.29349 2.50786 2.46425C1.31647 3.63511 0.647173 5.22295 0.647173 6.8786C0.647173 8.53426 1.31647 10.1223 2.50786 11.293C3.69936 12.4637 5.31517 13.1214 7 13.1214C8.68483 13.1214 10.3009 12.4637 11.4921 11.293C12.6835 10.1221 13.3528 8.53426 13.3528 6.8786C13.351 5.22344 12.681 3.6365 11.49 2.46615C10.299 1.29572 8.68433 0.637384 6.99978 0.635558L7 0.635776Z" fill="black"/>
<path d="M10.3162 7.19684H7.00003C6.91424 7.19684 6.83192 7.16331 6.77126 7.1037C6.7106 7.04409 6.67648 6.9632 6.67648 6.8789V2.55146C6.67648 2.37583 6.82141 2.23352 7.00003 2.23352C7.17864 2.23352 7.32357 2.37583 7.32357 2.55146V6.5609H10.3164H10.3163C10.495 6.5609 10.6398 6.70332 10.6398 6.87884C10.6398 7.05436 10.495 7.19678 10.3163 7.19678L10.3162 7.19684Z" fill="black"/>
</svg>
