<svg width="13" height="13" viewBox="0 0 13 13" fill="none" xmlns="http://www.w3.org/2000/svg">
<path d="M12.262 0.764709H3.49082C3.29438 0.764709 3.13524 0.92385 3.13524 1.1203V3.1353H1.12024C0.923789 3.1353 0.764648 3.29444 0.764648 3.49089V12.2621C0.764648 12.4585 0.923789 12.6177 1.12024 12.6177H9.89141C10.0879 12.6177 10.247 12.4585 10.247 12.2621V10.2471H12.262C12.4584 10.2471 12.6176 10.0879 12.6176 9.89147V1.1203C12.6176 0.92385 12.4584 0.764709 12.262 0.764709ZM9.53582 11.9065H1.47582V3.84647H9.53582V11.9065ZM11.9064 9.53589H10.247V3.49089C10.247 3.29444 10.0879 3.1353 9.89141 3.1353H3.84641V1.47589H11.9064V9.53589Z" fill="black"/>
</svg>
