<svg width="37" height="36" viewBox="0 0 37 36" fill="none" xmlns="http://www.w3.org/2000/svg">
<path d="M18.375 0C8.24319 0 0 8.07496 0 18C0 27.925 8.24319 36 18.375 36C28.5076 36 36.75 27.925 36.75 18C36.75 8.07496 28.5076 0 18.375 0ZM26.3426 21.5491C28.1297 23.1034 28.5012 23.6583 28.5619 23.753C29.3025 24.9034 27.7407 25.0435 27.7407 25.0435H24.4491C24.4491 25.0435 23.6478 25.0521 22.9632 24.6076C21.8471 23.8915 20.6783 22.5031 19.857 22.7442C19.1675 22.9461 19.1739 23.8586 19.1739 24.6389C19.1739 24.9183 18.9286 25.0435 18.375 25.0435C17.8214 25.0435 17.5913 25.0435 17.346 25.0435C15.5429 25.0435 13.5863 24.4487 11.6346 22.4507C8.87353 19.6263 6.45202 13.9367 6.45202 13.9367C6.45202 13.9367 6.30902 13.6503 6.4648 13.4757C6.64136 13.2801 7.12151 13.3051 7.12151 13.3051L10.3132 13.3043C10.3132 13.3043 10.6136 13.3599 10.8293 13.5086C11.0074 13.6307 11.1065 13.8639 11.1065 13.8639C11.1065 13.8639 11.6426 15.5982 12.3256 16.704C13.6598 18.8624 14.2806 18.9172 14.7336 18.6848C15.3951 18.3483 15.1793 16.0537 15.1793 16.0537C15.1793 16.0537 15.2089 15.0683 14.8638 14.6293C14.5977 14.2897 14.0888 14.1089 13.8667 14.0807C13.687 14.058 13.9874 13.7497 14.37 13.5736C14.8814 13.3505 15.5772 13.2934 16.7772 13.3043C17.7111 13.313 17.9803 13.3677 18.3446 13.4499C19.4463 13.6988 19.1739 14.3554 19.1739 16.661C19.1739 17.3997 19.0701 18.4383 19.6389 18.7826C19.8841 18.9313 20.7246 19.1129 22.2202 16.7337C22.9304 15.6052 23.4952 13.7332 23.4952 13.7332C23.4952 13.7332 23.6119 13.5274 23.7932 13.4257C23.9786 13.3216 23.973 13.3239 24.227 13.3239C24.4811 13.3239 27.0288 13.3043 27.5881 13.3043C28.1465 13.3043 28.6706 13.2981 28.7609 13.619C28.8903 14.0799 28.3486 15.6592 26.9761 17.3731C24.7208 20.1858 24.4707 19.9229 26.3426 21.5491Z" fill="#3874CB"/>
</svg>
