<svg width="26" height="23" viewBox="0 0 26 23" fill="none" xmlns="http://www.w3.org/2000/svg">
<path d="M1.48787 23H24.5122C24.8619 23 25.2005 22.8764 25.4685 22.6506C25.7364 22.4251 25.9166 22.1117 25.9774 21.766C26.0381 21.4203 25.9756 21.064 25.8007 20.76L14.2885 0.74646V0.746663C14.0227 0.284626 13.5315 0 13 0C12.4683 0 11.9772 0.284626 11.7115 0.746663L0.199336 20.7602V20.76C0.0243933 21.0641 -0.0380899 21.4203 0.0225769 21.766C0.0832438 22.1119 0.263428 22.4251 0.531486 22.6506C0.799343 22.8764 1.138 23 1.48787 23ZM13 20.227C12.6102 20.227 12.2366 20.0716 11.961 19.7951C11.6855 19.5185 11.5307 19.1433 11.5307 18.7522C11.5307 18.361 11.6855 17.986 11.961 17.7094C12.2365 17.4329 12.6104 17.2775 13 17.2775C13.3896 17.2775 13.7635 17.4329 14.039 17.7094C14.3145 17.9859 14.4693 18.3612 14.4693 18.7522C14.4693 19.1433 14.3145 19.5185 14.039 19.7951C13.7633 20.0716 13.3896 20.227 13 20.227ZM13 5.97658C13.4336 5.97658 13.8483 6.15439 14.1485 6.46855C14.4484 6.78271 14.6076 7.20631 14.5892 7.64106L14.298 14.493C14.2787 14.9451 14.0273 15.355 13.6335 15.5758C13.2399 15.7965 12.7602 15.7965 12.3666 15.5758C11.9727 15.3549 11.7212 14.9451 11.702 14.493L11.4108 7.64106C11.3925 7.20633 11.5515 6.78274 11.8516 6.46855C12.1515 6.15439 12.5663 5.97658 13 5.97658Z" fill="white"/>
</svg>
