<svg width="50" height="48" viewBox="0 0 50 48" fill="none" xmlns="http://www.w3.org/2000/svg">
<path d="M46.2121 7.031L22.1704 28.9747L13.4385 19.4486C12.5881 18.5412 11.1706 18.4847 10.2063 19.2785C9.29894 20.1289 9.24238 21.5464 10.0362 22.5107L20.2993 33.7377C20.7529 34.248 21.3767 34.475 22.0004 34.475C22.5676 34.475 23.0779 34.3049 23.5315 33.9078L49.2743 10.3764C50.1816 9.52605 50.2381 8.10853 49.4443 7.14419C48.594 6.23687 47.1765 6.18031 46.2125 7.03068L46.2121 7.031Z" fill="#00B332"/>
<path d="M23.8147 47.6298C36.9696 47.6298 47.6296 36.9698 47.6296 23.8149C47.6296 22.6809 47.5731 21.6035 47.403 20.5262C47.2329 19.2787 46.0989 18.4283 44.8515 18.5984C43.6041 18.7685 42.7536 19.9024 42.9237 21.1499C43.0372 22.0572 43.0938 22.9645 43.0938 23.8149C43.0938 34.4182 34.4184 43.0936 23.8151 43.0936C13.2118 43.0936 4.53635 34.4182 4.53635 23.8149C4.53635 13.2116 13.2118 4.53615 23.8151 4.53615C28.3514 4.53615 32.774 6.12381 36.2328 9.07242C37.1967 9.86623 38.6143 9.75273 39.4081 8.78883C40.2019 7.82494 40.0884 6.40734 39.1245 5.61361C34.8722 1.98427 29.4286 0 23.8149 0C10.66 0 0 10.66 0 23.8149C0 36.9698 10.66 47.6298 23.8149 47.6298L23.8147 47.6298Z" fill="#00B332"/>
</svg>
