<svg width="50" height="50" viewBox="0 0 50 50" fill="none" xmlns="http://www.w3.org/2000/svg">
<rect width="50" height="50" fill="white"/>
<path d="M44.9815 9.00019H5.01892C2.80273 9.00019 1 10.8037 1 13.0199V36.7404C1 38.9569 2.80273 40.76 5.01892 40.76H44.9815C47.1976 40.76 49 38.9565 49 36.7404V13.0189C49 10.8031 47.1973 9 44.9815 9V9.00019ZM5.01892 11.6229H44.9815C45.7517 11.6229 46.3773 12.2493 46.3773 13.0199V16.7424H3.62252V13.0199C3.62252 12.2493 4.24892 11.6229 5.01873 11.6229H5.01892ZM44.9815 38.1366H5.01892C4.24872 38.1366 3.62271 37.5102 3.62271 36.7396V22.0309H46.3775V36.7396C46.3775 37.5102 45.7518 38.1362 44.9816 38.1362L44.9815 38.1366Z" fill="#676666"/>
<path d="M7.58887 28.7782H9.67485V31.5729H7.58887V28.7782Z" fill="#676666"/>
<path d="M7.58887 26.9751V27.8894H9.67485V26.0216C9.67485 25.9748 9.68803 25.932 9.7012 25.8899H8.67413C8.07444 25.8899 7.58887 26.3754 7.58887 26.9751Z" fill="#676666"/>
<path d="M17.0926 25.8895H16.0645C16.0787 25.9315 16.0919 25.9743 16.0919 26.0212V27.889H18.1775V26.9746C18.1775 26.375 17.692 25.8895 17.0926 25.8895Z" fill="#676666"/>
<path d="M9.67485 32.4612H7.58887V33.4843C7.58887 34.0832 8.07514 34.5684 8.67373 34.5684H9.7008C9.68763 34.5263 9.67446 34.4835 9.67446 34.4374L9.67409 32.4612L9.67485 32.4612Z" fill="#676666"/>
<path d="M16.0918 28.7782H18.1774V31.5729H16.0918V28.7782Z" fill="#676666"/>
<path d="M16.0909 34.4376C16.0909 34.4837 16.0777 34.5269 16.0635 34.5686H17.0917C17.6906 34.5686 18.1765 34.0827 18.1765 33.4845V32.4614H16.0909L16.0909 34.4376Z" fill="#676666"/>
<path d="M15.2301 25.8894H10.5361C10.5493 25.9315 10.5628 25.9743 10.5628 26.0211V34.4374C10.5628 34.4835 10.5493 34.5267 10.5365 34.5684H15.2301C15.2166 34.5263 15.2038 34.4835 15.2038 34.4374V26.0211C15.2034 25.9743 15.2162 25.9311 15.2301 25.8894Z" fill="#676666"/>
</svg>
