<svg width="50" height="50" viewBox="0 0 50 50" fill="none" xmlns="http://www.w3.org/2000/svg">
<rect width="50" height="50" fill="white"/>
<path d="M49.9008 26.1415L49.8989 26.1323L45.2473 15.6669C45.0611 15.2473 44.6446 14.9768 44.185 14.9768H34.8828V9.16281C34.8828 8.52041 34.3624 8 33.72 8H8.13935C7.83066 8 7.53506 8.1224 7.31681 8.34025C7.09896 8.55848 6.97656 8.85409 6.97656 9.16279C6.97656 9.47109 7.09896 9.7667 7.31681 9.98494C7.53505 10.2028 7.83065 10.3256 8.13935 10.3256H32.5573V26.6045C32.5573 27.2469 33.078 27.7673 33.7201 27.7673H47.6736V35.9068H44.0201C43.6798 34.5673 42.7584 33.4503 41.5082 32.8607C40.2584 32.2714 38.8101 32.2714 37.56 32.8607C36.3101 33.4503 35.3887 34.5673 35.0485 35.9068H21.9276C21.5874 34.5673 20.6659 33.4503 19.4162 32.8607C18.166 32.2714 16.7176 32.2714 15.4679 32.8607C14.2177 33.4503 13.2963 34.5673 12.956 35.9068H9.30255V26.6045C9.30255 25.9625 8.78178 25.4417 8.13975 25.4417C7.49735 25.4417 6.97694 25.9625 6.97694 26.6045V37.0699C6.97694 37.7123 7.49732 38.2327 8.13975 38.2327H12.956C13.2963 39.5726 14.2178 40.6896 15.4679 41.2792C16.7177 41.8685 18.166 41.8685 19.4158 41.2792C20.666 40.6895 21.5874 39.5726 21.9276 38.2327H35.0485C35.3891 39.5726 36.3106 40.6896 37.5604 41.2792C38.8106 41.8685 40.2589 41.8685 41.5086 41.2792C42.7589 40.6895 43.6802 39.5726 44.0205 38.2327H48.8368C49.4792 38.2327 49.9996 37.7123 49.9996 37.0699V26.6045C49.9992 26.4452 49.9657 26.2873 49.9014 26.1415L49.9008 26.1415ZM17.4415 39.3954C16.8245 39.3954 16.2329 39.1506 15.7968 38.7145C15.3607 38.2784 15.1159 37.6868 15.1159 37.0699C15.1159 36.4533 15.3607 35.8616 15.7968 35.4255C16.2329 34.9894 16.8246 34.7442 17.4415 34.7442C18.0581 34.7442 18.6497 34.9894 19.0858 35.4255C19.5219 35.8616 19.7671 36.4532 19.7671 37.0699C19.7663 37.6865 19.5212 38.2777 19.0851 38.7138C18.649 39.1499 18.0581 39.395 17.4415 39.3954ZM39.534 39.3954C38.917 39.3954 38.3253 39.1506 37.8893 38.7145C37.4532 38.2784 37.208 37.6868 37.208 37.0702C37.208 36.4532 37.4532 35.8615 37.8893 35.4255C38.3254 34.9894 38.917 34.7442 39.5337 34.7442C40.1507 34.7442 40.7423 34.9894 41.1783 35.4255C41.6143 35.8616 41.8592 36.4532 41.8592 37.0699C41.8588 37.6865 41.6136 38.2777 41.1775 38.7138C40.7414 39.1499 40.1502 39.3951 39.5336 39.3955L39.534 39.3954ZM34.8824 17.3029H43.4291L47.0468 25.4424H34.8827L34.8824 17.3029Z" fill="#676666"/>
<path d="M22.0927 14.9776C22.0923 14.3352 21.5719 13.8148 20.9299 13.8148H1.16281C0.520411 13.8148 0 14.3352 0 14.9776C0 15.6196 0.520381 16.1404 1.16281 16.1404H20.9299C21.5719 16.1401 22.0923 15.6197 22.0927 14.9776Z" fill="#676666"/>
<path d="M20.9302 19.6284H8.13937C7.49697 19.6284 6.97656 20.1488 6.97656 20.7912C6.97656 21.4332 7.49694 21.954 8.13937 21.954H20.9302C21.5722 21.954 22.093 21.4333 22.093 20.7912C22.093 20.1488 21.5722 19.6284 20.9302 19.6284Z" fill="#676666"/>
</svg>
