<svg width="50" height="50" viewBox="0 0 50 50"  fill="#484848" xmlns="http://www.w3.org/2000/svg">
    <path d="M43.5254 1.42684L43.1692 1.11569C42.4978 0.454765 41.6084 0.0583095 40.6658 0C39.8443 0.0247074 39.0747 0.407287 38.5621 1.04661L33.3466 6.97866C31.9721 4.61367 29.6189 2.9722 26.9157 2.49268C24.2121 2.0132 21.4335 2.74439 19.3221 4.49092C17.2106 6.23745 15.9808 8.82124 15.9615 11.5534C13.6448 12.0877 11.6264 13.4941 10.3299 15.4772C9.03335 17.4607 8.55919 19.8663 9.00743 22.1899C8.15873 22.4335 7.41018 22.9393 6.86926 23.6341C6.32869 24.329 6.02406 25.1768 6 26.0551C6.0489 30.2213 7.7556 34.1984 10.7459 37.1151L10.8329 37.1931C12.5034 38.8485 14.4697 40.18 16.6308 41.1189L16.7092 41.1621H16.7088C17.3868 41.459 18.0803 41.7188 18.7865 41.9404C19.8211 42.4075 22.1852 43.6699 22.0897 45.2871C22.0854 45.333 22.0854 45.3794 22.0897 45.4253C22.0897 45.5033 22.2201 47.2239 19.4384 48.3481V48.3485C19.0717 48.5137 18.8672 48.9075 18.9436 49.3005C19.0201 49.6935 19.3581 49.983 19.7601 50H30.7386C31.1367 49.9826 31.4716 49.6981 31.5519 49.3101C31.6319 48.9217 31.4367 48.5288 31.0777 48.357C28.2961 47.2328 28.418 45.5117 28.418 45.4516H28.4176C28.4219 45.3994 28.4219 45.3477 28.4176 45.2956C28.3222 43.6873 30.6602 42.4334 31.6948 41.9578C39.1529 39.623 44.5081 33.3619 44.5081 25.9948C44.4778 25.1239 44.1705 24.285 43.6299 23.5994C43.0894 22.9142 42.3435 22.4173 41.5002 22.181C41.8285 20.4916 41.6671 18.744 41.0341 17.1423C40.4016 15.5405 39.3243 14.1511 37.9277 13.1358L44.2209 5.9842C44.8123 5.30977 45.9248 3.51116 43.5254 1.42684ZM25.271 4.1076C26.7876 4.10219 28.2703 4.55041 29.5277 5.39397C30.7846 6.2371 31.7579 7.43737 32.321 8.83798C32.4079 9.04568 32.4773 9.26188 32.5468 9.47806C32.6349 9.7761 32.7044 10.0791 32.7556 10.3861C32.8018 10.6868 32.8309 10.9899 32.8425 11.2941H31.9733C31.6003 11.3095 31.229 11.347 30.8607 11.4064C30.5677 11.4508 30.2775 11.5114 29.9915 11.5878C27.752 12.1673 25.8129 13.5625 24.5586 15.4967C24.3622 15.8012 24.1821 16.1159 24.0195 16.4394C23.9761 16.5344 23.9326 16.6382 23.8806 16.7421H23.8802C23.7751 16.9671 23.6823 17.1984 23.6024 17.4339L23.472 17.7972C23.4025 18.0218 23.3416 18.2643 23.2896 18.4975C23.2376 18.731 23.2287 18.7221 23.2112 18.8349V18.9213H23.1243V18.921C22.7913 18.8264 22.4661 18.7079 22.1506 18.5666C21.7835 18.399 21.4292 18.2056 21.09 17.9871C20.4692 17.5678 19.9126 17.061 19.4385 16.4826C18.9452 15.8862 18.5463 15.2183 18.2565 14.5022C18.1075 14.1373 17.9883 13.7617 17.8998 13.378C17.8129 12.9788 17.752 12.5742 17.7175 12.1673V11.6569C17.7198 9.65989 18.5165 7.74507 19.9333 6.33052C21.3506 4.91607 23.2726 4.11693 25.28 4.10764L25.271 4.1076ZM29.6608 40.7131C28.2215 41.0444 26.7489 41.2127 25.271 41.215H24.8449C30.0605 34.8158 29.8347 26.6613 29.8083 26.013L29.8086 26.0126C29.875 25.3332 30.2076 24.707 30.7349 24.27C31.2619 23.833 31.9415 23.6202 32.6251 23.6778C33.3074 23.6226 33.9846 23.8364 34.5096 24.273C35.035 24.7101 35.3664 25.3347 35.4328 26.0126C35.4243 26.4971 34.8678 37.2545 29.6697 40.7136L29.6608 40.7131ZM22.7068 41.0332C21.2217 40.8467 19.7633 40.49 18.3605 39.9696C21.1553 35.8473 22.6005 30.9664 22.4984 25.995C22.4848 25.8711 22.4848 25.7468 22.4984 25.6229C22.6152 25.1627 22.8596 24.7446 23.2039 24.4157C23.5481 24.0872 23.9784 23.8613 24.4453 23.7636C24.7154 23.6957 24.9928 23.6609 25.2711 23.6602C25.547 23.6594 25.8217 23.6941 26.0883 23.7636C26.632 23.8555 27.1287 24.1262 27.4989 24.5323C27.8695 24.9384 28.0922 25.4565 28.131 26.0035C28.131 26.1248 28.4268 34.9191 22.7067 41.0326L22.7068 41.0332ZM12.5281 36.3983C15.3182 30.6993 15.1358 26.54 15.1358 26.0211C15.2041 25.3448 15.5367 24.722 16.0617 24.287C16.5868 23.8519 17.2624 23.6392 17.9434 23.6948C18.6287 23.6372 19.309 23.8511 19.8364 24.2901C20.3641 24.729 20.6959 25.3571 20.76 26.0385V26.0902C20.8345 30.8016 19.4274 35.4184 16.7354 39.2948C15.1951 38.5439 13.7768 37.5673 12.528 36.3979L12.5281 36.3983ZM16.1095 13.2919C16.1134 13.332 16.1134 13.3726 16.1095 13.4131C16.1883 13.8227 16.2927 14.2269 16.4223 14.6238C16.5503 15.0025 16.7044 15.3723 16.8829 15.7306C17.1161 16.1996 17.3897 16.6482 17.7001 17.0709C17.9617 17.4338 18.2524 17.775 18.5694 18.0912C18.8418 18.3665 19.1321 18.6236 19.4387 18.861C19.8287 19.1822 20.2443 19.4713 20.6816 19.7258C21.0813 19.9512 21.4966 20.1477 21.9246 20.3137C22.31 20.4662 22.705 20.5932 23.107 20.694C23.1101 21.0588 23.1388 21.4228 23.1939 21.7838C23.1939 21.8787 23.1939 21.9652 23.2374 22.0606C23.2809 22.1555 23.2374 22.2941 23.2894 22.415C23.0659 22.5192 22.8509 22.6404 22.6464 22.7783C22.4555 22.9049 22.2754 23.0466 22.1074 23.2018C21.9537 23.3431 21.8086 23.4932 21.6727 23.6515C20.753 22.5864 19.4115 21.9737 18.0001 21.9737C16.5883 21.9737 15.2472 22.5863 14.3275 23.6515C14.3884 23.5735 13.5277 22.908 13.4582 22.8647C13.2397 22.7099 13.01 22.5713 12.7713 22.4497C12.457 22.3026 12.1279 22.1895 11.7892 22.1123C11.6173 22.0714 11.443 22.0397 11.2676 22.0173H10.807C10.7193 21.5583 10.6754 21.092 10.6766 20.6248C10.6498 18.9795 11.1671 17.3708 12.1485 16.0459C13.1303 14.7213 14.5215 13.7535 16.1094 13.2918L16.1095 13.2919ZM10.2071 23.669C10.3344 23.6597 10.4624 23.6597 10.5897 23.669C11.2257 23.6323 11.8541 23.823 12.3608 24.2068C12.868 24.5905 13.22 25.1422 13.3539 25.7617C13.3713 26.0181 13.3713 26.2752 13.3539 26.5312C13.2351 29.4968 12.5009 32.4054 11.1982 35.0753C8.98195 32.5648 7.74761 29.3447 7.72119 26.0038C7.77474 25.3803 8.05841 24.7986 8.5171 24.3708C8.97617 23.9427 9.57848 23.6991 10.2071 23.6864L10.2071 23.669ZM22.6638 48.2974C23.4407 47.5083 23.8691 46.4443 23.8547 45.3398C23.8663 44.409 23.5318 43.5068 22.916 42.8061C23.6952 42.8929 24.4787 42.9362 25.263 42.9358C26.0414 42.9366 26.8191 42.8933 27.5925 42.8061C27.0022 43.5172 26.6933 44.4182 26.7232 45.3398C26.7038 46.4435 27.1295 47.5086 27.9056 48.2974H22.6638ZM42.7868 26.0557C42.7868 31.9276 38.9012 37.0298 33.225 39.546C36.8239 34.5219 37.1541 26.4451 37.1716 26.03C37.2356 25.3521 37.5651 24.7267 38.0886 24.2882C38.6125 23.8496 39.2881 23.6338 39.9707 23.6867C40.1096 23.6743 40.2489 23.6743 40.3878 23.6867C41.011 23.7176 41.6009 23.9766 42.0437 24.414C42.4865 24.8514 42.7511 25.4363 42.7868 26.0559L42.7868 26.0557ZM39.9443 20.5561H39.9447C39.9454 21.0232 39.902 21.4895 39.8143 21.9482H39.6055C39.1693 21.9736 38.739 22.0613 38.3276 22.2076C38.0773 22.2941 37.8356 22.4041 37.6062 22.5365C37.392 22.6477 37.1883 22.7778 36.9978 22.9257C36.8701 23.0249 36.7482 23.1318 36.6326 23.2453C36.5197 23.3576 36.4067 23.4789 36.3024 23.5997V23.6001C35.3842 22.5322 34.0423 21.9173 32.6297 21.9173C31.2172 21.9173 29.8752 22.5323 28.9571 23.6001C28.3335 22.8372 27.4751 22.2999 26.5146 22.0694C26.1111 21.966 25.6966 21.9138 25.2802 21.9138H24.915C24.915 21.8359 24.915 21.7667 24.8716 21.6892V21.6888C24.8025 21.3008 24.7676 20.907 24.7672 20.5129V19.9767C24.8782 18.4043 25.4808 16.906 26.491 15.6919C27.5011 14.4774 28.8683 13.608 30.4 13.2057C30.92 13.0683 31.4535 12.9899 31.991 12.9722C32.2805 12.9564 32.5708 12.9564 32.8603 12.9722C33.0803 12.9722 33.2976 12.998 33.5122 13.0502C34.4354 13.1949 35.3214 13.5181 36.12 14.0014C37.2811 14.6623 38.2462 15.6163 38.9179 16.7674C39.5893 17.9183 39.9435 19.2254 39.9447 20.5562L39.9443 20.5561ZM42.9087 4.86091L36.4412 12.2288H36.3892C35.8331 11.9566 35.2507 11.7423 34.6507 11.5887H34.6073C34.6041 11.2768 34.584 10.9648 34.5463 10.6548C34.5463 10.3437 34.4594 10.041 34.3985 9.72945C34.3376 9.41829 34.2681 9.18473 34.1812 8.91642L34.1292 8.72609L39.8402 2.1802C40.0358 1.89375 40.3614 1.72196 40.7095 1.72196C41.2303 1.79068 41.7119 2.03505 42.0743 2.41377L42.4305 2.72492C43.7778 3.90969 43.2043 4.52352 42.9086 4.86093L42.9087 4.86091Z"/>
</svg>
