<svg width="50" height="50" viewBox="0 0 50 50"  fill="#484848" xmlns="http://www.w3.org/2000/svg">
    <path d="M33.5639 2.71123C34.0752 2.71123 34.416 2.36898 34.416 1.85562C34.416 1.34225 34.0752 1 33.5639 1H25.0426C24.5313 1 24.1905 1.34225 24.1905 1.85562V9.55615C17.7995 9.64171 10.6421 10.3262 8.6817 11.6952C8.25564 12.0374 8 12.4652 8 12.9786C8 13.492 8.25564 13.9198 8.6817 14.1765L14.5614 46.861C14.817 48.0588 15.8396 49 17.1178 49H32.9674C34.2456 49 35.2682 48.1444 35.5238 46.861L41.4035 14.1765C41.8296 13.9198 42 13.492 42 12.9786C42 12.4652 41.7444 12.0374 41.3183 11.6952C39.3584 10.3262 32.2857 9.64171 25.8942 9.55615V2.71123H33.5639ZM27.0025 11.2674H29.3033H29.8997H31.1779L31.8596 11.3529H32.3709L33.0526 11.4385H33.4787L34.1604 11.5241L34.5865 11.6096L35.183 11.6952H35.5238L36.1203 11.7807L36.3759 11.8663L36.9724 11.9519H37.2281L37.8246 12.0374H37.995L38.5063 12.123H38.6767C38.8471 12.123 39.0175 12.2086 39.188 12.2941H39.2732L39.6992 12.4652H39.7845L40.1253 12.6364H40.2105C38.5063 13.8342 33.2231 14.6043 25.8947 14.6898V11.2674H27.0025ZM9.9599 12.9786L10.1303 12.893L10.386 12.8075L10.5564 12.7219L11.0677 12.5508L11.4085 12.4652L11.6642 12.3797L12.3459 12.2086L12.7719 12.123H13.1128L13.9649 11.9519L14.4762 11.8663L14.9023 11.7807L15.9248 11.6096L16.5213 11.5241L17.0326 11.4385L17.6291 11.3529H18.2256L18.9073 11.2674H24.1905V14.6898C16.8622 14.6043 11.5789 13.8342 9.96039 12.9786H9.9599ZM33.8195 46.5187C33.7343 46.9465 33.3935 47.2032 32.9674 47.2032H17.1178C16.6917 47.2032 16.3509 46.9465 16.2657 46.5187L10.5564 15.0321C13.4536 15.8877 18.9073 16.4011 25.0426 16.4011C31.1779 16.4011 36.6316 15.8877 39.5288 15.0321L33.8195 46.5187Z"/>
</svg>
