<svg width="50" height="50" viewBox="0 0 50 50"  fill="#484848" xmlns="http://www.w3.org/2000/svg">
    <path d="M28.7575 20.926C27.8456 21.6748 27.2861 22.7256 27.1828 23.8867C27.079 25.0468 27.4431 26.1763 28.2086 27.0687C28.9741 27.9601 30.0483 28.5079 31.2343 28.609C31.3669 28.621 31.4989 28.6256 31.6309 28.6256C32.6759 28.6256 33.6778 28.2705 34.4868 27.6061C35.3987 26.8573 35.9587 25.8071 36.062 24.6465C36.1664 23.4864 35.8017 22.3564 35.0373 21.4645C35.0373 21.464 35.0368 21.464 35.0368 21.464C33.4568 19.6228 30.6408 19.3842 28.7575 20.926ZM33.2599 26.1763C32.7387 26.6032 32.077 26.8084 31.3994 26.7501C30.7213 26.6918 30.1075 26.3793 29.6694 25.8685C28.765 24.8152 28.9061 23.24 29.9824 22.3564C30.4594 21.9653 31.0407 21.7742 31.6205 21.7742C32.3487 21.7742 33.0711 22.0767 33.5757 22.6631C34.0128 23.1739 34.2215 23.8201 34.1618 24.4829C34.1027 25.1468 33.7823 25.7476 33.2601 26.1762L33.2599 26.1763ZM23.2682 24.3825C21.9379 22.8318 19.5637 22.6266 17.9758 23.931C17.2071 24.5616 16.7365 25.4473 16.6487 26.4252C16.5619 27.4036 16.8686 28.3554 17.5132 29.1073C18.1589 29.8592 19.0639 30.3205 20.0636 30.4054C20.1748 30.4158 20.2872 30.4205 20.3979 30.4205C21.2778 30.4205 22.1226 30.1211 22.8051 29.5613C23.5737 28.9297 24.0454 28.0445 24.1321 27.0667C24.2205 26.0867 23.9139 25.1349 23.2682 24.3825ZM21.5786 28.1304C21.2007 28.4402 20.7163 28.5923 20.2303 28.5465C19.7379 28.5038 19.2923 28.2778 18.974 27.9076C18.6572 27.5379 18.5061 27.0692 18.5486 26.5876C18.5912 26.106 18.8233 25.6701 19.2013 25.3603C19.5468 25.076 19.9684 24.938 20.3878 24.938C20.9159 24.938 21.4408 25.1572 21.8059 25.5832C22.4623 26.3465 22.3601 27.4885 21.5786 28.1304ZM35.6613 31.5593C34.8479 31.4869 34.0564 31.7332 33.4314 32.2466C32.8054 32.76 32.4216 33.4807 32.3508 34.2764C32.279 35.0715 32.5286 35.8468 33.0535 36.4581C33.5784 37.0694 34.3151 37.4443 35.1285 37.5146C35.2196 37.5219 35.3095 37.5265 35.3995 37.5265C36.116 37.5265 36.8038 37.2823 37.3584 36.8262C38.6483 35.7671 38.8175 33.8786 37.7353 32.6153V32.6148C37.2115 32.0035 36.4742 31.6286 35.6613 31.5593ZM36.1319 35.3968C35.8961 35.59 35.5948 35.6806 35.294 35.6551C34.989 35.6296 34.7116 35.488 34.5147 35.2589C34.3172 35.0287 34.223 34.7387 34.2501 34.4393C34.2767 34.1399 34.421 33.8696 34.6563 33.677C34.8644 33.5062 35.1226 33.4135 35.3925 33.4135C35.426 33.4135 35.4606 33.415 35.4941 33.4182C35.7992 33.4442 36.0765 33.5853 36.2735 33.8144C36.6802 34.2898 36.6168 34.999 36.1319 35.3968ZM47.966 47.8182L36.5834 7.77911C36.6712 7.66768 36.7686 7.56614 36.8458 7.44638C37.4564 6.49403 37.6501 5.36518 37.392 4.26853C37.1348 3.17245 36.4561 2.24038 35.4825 1.6432C34.5089 1.04751 33.3559 0.855908 32.2348 1.10896C25.552 2.61071 19.5064 5.55263 14.2669 9.85313C9.02833 14.1542 5.01612 19.4657 2.34281 25.6424C1.89459 26.6776 1.88554 27.8221 2.31779 28.864C2.74951 29.9059 3.57088 30.7214 4.62806 31.1593C5.17317 31.3847 5.74541 31.4951 6.31229 31.4951C7.0107 31.4951 7.69793 31.3191 8.32235 30.9926L9.56852 31.5774C10.5916 32.058 11.3194 32.9396 11.5136 33.9372C11.6988 34.889 11.6073 35.984 11.2426 37.1916C10.6299 39.2145 11.1404 40.5574 11.6759 41.3269C12.2844 42.2012 13.2356 42.7735 14.221 42.8577C15.6402 42.9759 17.2749 42.1001 17.6795 39.8554C17.7706 39.3488 18.1687 39.065 18.4626 39.0827C18.8836 39.1066 19.342 39.72 19.4197 41.0349C19.622 44.4673 20.8081 46.3971 22.9464 46.7714C24.1973 46.9906 25.8774 46.6735 26.811 45.4712C27.3955 44.7178 27.8756 43.3791 26.8387 41.2769C26.721 41.039 26.6188 40.8172 26.5289 40.6094C26.3851 40.2793 26.5741 40.0533 26.6609 39.9721C26.7476 39.8908 26.9851 39.719 27.3124 39.8711L46.6349 48.9089C46.7664 48.9703 46.9058 49 47.0464 49C47.2662 49 47.4834 48.9255 47.6601 48.7818C47.9455 48.547 48.0652 48.1705 47.9652 47.818L47.966 47.8182ZM5.37322 29.4402C4.78393 29.1971 4.3272 28.7425 4.08659 28.1624C3.84598 27.5834 3.85076 26.9456 4.10096 26.3692C6.65503 20.4676 10.4878 15.3913 15.4948 11.2824C20.5007 7.17301 26.277 4.36173 32.6627 2.9261C32.8421 2.88601 33.0236 2.86622 33.2036 2.86622C33.6475 2.86622 34.084 2.98806 34.4695 3.22394C35.0119 3.55563 35.3888 4.07476 35.533 4.68557C35.6768 5.2953 35.5682 5.9238 35.2291 6.45391C34.8895 6.98451 34.3582 7.35316 33.7343 7.49427C28.0948 8.76166 22.9942 11.2444 18.5737 14.8716C14.1537 18.4993 10.7692 22.9826 8.51384 28.1952C8.36372 28.5415 8.14014 28.8373 7.84896 29.0763V29.0768C7.15588 29.6464 6.20726 29.787 5.37257 29.4397L5.37322 29.4402ZM28.1353 38.1875C27.192 37.7464 26.0954 37.9188 25.3422 38.6233C24.5873 39.3304 24.3637 40.3968 24.7736 41.3403C24.8742 41.5726 24.9897 41.822 25.1207 42.0875C25.4609 42.779 25.768 43.7303 25.2926 44.3427C24.8673 44.8884 23.9597 45.054 23.2842 44.9347C22.8536 44.8592 21.5436 44.6301 21.3258 40.9289C21.1714 38.3015 19.8039 37.2908 18.5752 37.2195C17.2588 37.1424 16.0531 38.137 15.8003 39.532C15.6241 40.5114 15.1067 41.055 14.3875 40.9993C14.0777 40.9723 13.5938 40.7671 13.2526 40.2766C12.8177 39.6512 12.7549 38.7682 13.0711 37.7215C13.5246 36.2255 13.6305 34.8348 13.3873 33.5866C13.0807 32.011 11.9617 30.63 10.394 29.8943L9.86059 29.6444C10.0187 29.4168 10.1598 29.1778 10.2705 28.9232C12.4073 23.9843 15.6134 19.737 19.7997 16.3019C23.9864 12.8653 28.8178 10.5143 34.1603 9.31356C34.4398 9.25107 34.7081 9.16256 34.9641 9.0506L45.5648 46.3397L28.1353 38.1875Z"/>
</svg>
