<svg width="50" height="50" viewBox="0 0 50 50"  fill="#484848" xmlns="http://www.w3.org/2000/svg">
    <path fill-rule="evenodd" clip-rule="evenodd" d="M32.5037 9.34356C31.3813 10.4756 30.5504 11.869 29.8861 13.3086C28.7764 12.7837 27.5803 12.5871 26.456 12.8881C24.7615 13.3424 23.532 14.7232 22.9015 16.4361C22.2706 18.1491 22.1903 20.231 22.7552 22.3395C23.2755 24.2809 24.2385 26.3432 25.3002 28.0831H19.8722C19.4418 24.221 16.1557 21.2022 12.1815 21.2022C8.20727 21.2022 4.92123 24.221 4.49077 28.0831H3.58036C2.16534 28.0831 1 29.2484 1 30.6635C1 38.7286 7.55686 45.2855 15.622 45.2855H34.5446C42.6098 45.2855 49.1666 38.7286 49.1666 30.6635C49.1666 29.2484 48.0013 28.0831 46.5863 28.0831H42.3997C44.07 26.5698 45.2861 24.5309 45.6217 22.5242C45.9319 20.7252 45.5583 18.9151 44.318 17.6741H44.3165C43.4998 16.8578 42.3485 16.5026 41.1363 16.3974C41.3229 15.0189 41.3248 13.4285 40.9178 11.8718C40.419 9.9642 39.3831 8.09572 37.4505 7.57769C35.3759 7.02169 33.6545 8.20358 32.5033 9.34324L32.5037 9.34356ZM37.0059 9.23951C38.0461 9.51827 38.8341 10.7048 39.2537 12.3087C39.673 13.9129 39.6673 15.8217 39.3897 16.9334C39.2472 17.5025 39.7034 18.0439 40.2886 18.0001C41.4985 17.9095 42.4562 18.2466 43.1008 18.8906C43.8757 19.6655 44.1676 20.8393 43.9275 22.232C43.6872 23.6247 42.8923 25.1825 41.5806 26.4937C41.0365 27.0378 40.3907 27.5724 39.7057 28.083H32.8466L33.2817 26.4603L40.077 23.2045C40.5052 22.9991 40.6856 22.4853 40.4802 22.0572C40.2748 21.629 39.761 21.4486 39.3329 21.654L33.868 24.2732L36.5006 14.4471C36.6234 13.9882 36.3512 13.5167 35.8923 13.3938C35.3313 13.2863 34.9915 13.5601 34.8391 14.0021L32.2065 23.8281L28.7829 18.8272C28.4201 18.3449 27.9255 18.3906 27.5884 18.6037C27.1968 18.8717 27.0961 19.4062 27.3634 19.7982L31.6202 26.0157L31.0658 28.0838H27.3447C26.0994 26.1946 24.9498 24.0259 24.4164 21.8952C23.9364 20.1035 24.0271 18.3564 24.5155 17.0301C25.0039 15.7039 25.8425 14.8345 26.9008 14.5507C27.7813 14.315 28.7788 14.502 29.7819 15.1858C30.2354 15.4961 30.8597 15.3075 31.0656 14.7976C31.6723 13.2939 32.6345 11.6551 33.725 10.5558C34.8271 9.38654 36.0109 8.92119 37.0058 9.24027L37.0059 9.23951ZM12.1814 22.9228C15.2237 22.9228 17.7188 25.1599 18.135 28.0835H16.3948C15.9932 26.1271 14.2522 24.643 12.1818 24.643C10.1115 24.643 8.37009 26.1271 7.96883 28.0835H6.22864C6.64487 25.1599 9.13996 22.9228 12.1822 22.9228H12.1814ZM12.1814 26.3632C13.3127 26.3632 14.2534 27.0797 14.6055 28.0835H9.75738C10.1095 27.0797 11.0502 26.3632 12.1814 26.3632ZM3.58026 29.8037H46.5862C47.0715 29.8037 47.4463 30.1785 47.4463 30.6638C47.4463 37.7994 41.6801 43.5656 34.5445 43.5656H15.6219C8.48637 43.5656 2.72014 37.7994 2.72014 30.6638C2.72014 30.1785 3.0949 29.8037 3.58026 29.8037Z"/>
    <path fill-rule="evenodd" clip-rule="evenodd" d="M18.2034 10.881C16.7888 10.881 15.623 12.0467 15.623 13.4613V18.622C15.623 20.0367 16.7888 21.2024 18.2034 21.2024C19.618 21.2024 20.7838 20.0367 20.7838 18.622V13.4613C20.7838 12.0467 19.618 10.881 18.2034 10.881ZM18.2034 12.6012C18.6949 12.6012 19.0635 12.9698 19.0635 13.4613V18.622C19.0635 19.1135 18.6949 19.4822 18.2034 19.4822C17.7119 19.4822 17.3433 19.1135 17.3433 18.622V13.4613C17.3433 12.9698 17.7119 12.6012 18.2034 12.6012Z"/>
    <path fill-rule="evenodd" clip-rule="evenodd" d="M5.72808 7.55648C5.31722 7.79417 5.17668 8.31983 5.41399 8.73067L5.88782 9.55046C4.39416 10.8763 3.97904 13.1265 5.01426 14.9197C5.60559 15.9437 6.65851 16.9122 7.85688 17.5876C9.05525 18.263 10.5002 18.705 11.7493 17.9843C12.998 17.2631 13.3375 15.7898 13.3521 14.4144C13.3667 13.039 13.0545 11.6436 12.4636 10.6196C11.2141 8.60219 9.09682 8.13979 7.37658 8.69085L6.90275 7.87106C6.5875 7.3788 6.07373 7.36266 5.72856 7.55696L5.72808 7.55648ZM10.9728 11.4792C11.3315 12.1009 11.6425 13.3269 11.6314 14.3971C11.6202 15.4677 11.2854 16.2644 10.8887 16.4937C10.4921 16.7225 9.63238 16.6142 8.69962 16.0889C7.76693 15.5636 6.8626 14.6813 6.50401 14.0595C5.78634 12.8166 6.20527 11.2526 7.44822 10.535C8.8021 9.76284 10.3603 10.3476 10.9727 11.4792L10.9728 11.4792Z"/>
    <path fill-rule="evenodd" clip-rule="evenodd" d="M24.2242 4C22.3342 4 20.7837 5.55047 20.7837 7.44047C20.7837 8.38545 21.1251 9.35652 21.6891 10.1806C22.2532 11.0042 23.106 11.7411 24.2242 11.7411C25.3423 11.7411 26.1952 11.0042 26.7592 10.1806C27.3233 9.35693 27.6646 8.38542 27.6646 7.44047C27.6646 5.55047 26.1142 4 24.2242 4ZM24.2242 5.72024C25.1845 5.72024 25.9444 6.48014 25.9444 7.44047C25.9444 7.92045 25.7094 8.66921 25.3396 9.20947C24.9699 9.74973 24.5313 10.0208 24.2241 10.0208C23.9169 10.0208 23.4784 9.74973 23.1086 9.20947C22.7389 8.6692 22.5039 7.92086 22.5039 7.44047C22.5039 6.48014 23.2638 5.72024 24.2242 5.72024Z"/>
</svg>
