<svg width="50" height="50" viewBox="0 0 50 50"  fill="#484848" xmlns="http://www.w3.org/2000/svg">
    <path d="M49.9999 33.7243C50.0076 32.1261 49.2616 30.6206 47.9928 29.6738C48.2631 29.5442 48.4357 29.2688 48.4375 28.9657V24.2071C48.4375 23.9869 48.3475 23.7766 48.1892 23.6265L25.5329 2.21297C25.2327 1.92901 24.7674 1.92901 24.4671 2.21297L1.81083 23.6265C1.65249 23.7766 1.56251 23.9869 1.56251 24.2071V28.9657C1.56426 29.2688 1.7369 29.5442 2.0072 29.6738C0.738361 30.6206 -0.00761986 32.1261 5.87046e-05 33.7243C5.87046e-05 36.9056 1.47122 38.9081 3.96943 39.226C4.10998 40.1307 4.50619 40.9744 5.10961 41.6553H2.34381C1.91238 41.6553 1.56256 42.0104 1.56256 42.4483V47.2069C1.56256 47.4172 1.64487 47.619 1.79135 47.7677C1.93783 47.9164 2.13664 48 2.34381 48H47.6562C47.8634 48 48.0622 47.9164 48.2087 47.7677C48.3552 47.619 48.4375 47.4172 48.4375 47.2069V42.4483C48.4375 42.238 48.3552 42.0362 48.2087 41.8875C48.0622 41.7388 47.8634 41.6553 47.6562 41.6553H44.8904C45.4938 40.9744 45.89 40.1307 46.0306 39.226C48.5288 38.9081 49.9999 36.9055 49.9999 33.7243ZM42.3741 31.0898C41.0805 32.312 39.1783 32.9312 36.7187 32.9312C34.8009 33.0442 32.9035 32.4812 31.3476 31.3372C30.8119 30.906 30.3679 30.3688 30.0422 29.7588H43.3913C43.1276 30.2567 42.7837 30.7067 42.3739 31.0898H42.3741ZM7.6241 31.0898C7.21569 30.7063 6.87284 30.2567 6.61026 29.7588H16.6103C16.9043 30.5335 17.3416 31.2442 17.8983 31.8528C16.4802 32.62 14.887 32.9921 13.2812 32.9312C10.8217 32.9312 8.91946 32.312 7.62419 31.088L7.6241 31.0898ZM19.6286 31.3387C19.0932 30.9067 18.6488 30.3693 18.3231 29.7589H28.3311C28.6255 30.5335 29.0629 31.2442 29.6195 31.8528C28.2007 32.6204 26.6068 32.9925 25.0001 32.9312C23.0822 33.0442 21.1849 32.4812 19.629 31.3372L19.6286 31.3387ZM24.9996 3.87681L45.671 23.4141H35.9371C35.5057 23.4141 35.1559 23.7692 35.1559 24.2072C35.1559 24.6452 35.5057 25.0003 35.9371 25.0003H46.8746V28.1727H3.12464V25.0003H32.0309C32.4623 25.0003 32.8121 24.6452 32.8121 24.2072C32.8121 23.7692 32.4623 23.4141 32.0309 23.4141H4.32821L24.9996 3.87681ZM1.56215 33.7243C1.56215 31.2537 3.81277 30.257 4.95357 29.9097C5.19109 30.4903 5.50986 31.0334 5.90044 31.5221C5.02049 32.2447 4.34634 33.1925 3.94732 34.2674C3.81304 34.6817 4.03347 35.1278 4.44013 35.2669C4.63614 35.3363 4.85134 35.3229 5.03758 35.2294C5.22347 35.1359 5.36473 34.9706 5.42925 34.7705C5.75953 33.9261 6.31373 33.191 7.03085 32.6472C8.84621 33.9696 11.0491 34.6289 13.2808 34.5174C15.3466 34.6038 17.3894 34.0521 19.1402 32.9358C20.891 34.0521 22.9338 34.6037 24.9996 34.5174C27.0654 34.6038 29.1081 34.0521 30.8589 32.9358C32.6097 34.0521 34.6525 34.6037 36.7183 34.5174C38.9501 34.6289 41.153 33.9696 42.9683 32.6472C43.6864 33.1903 44.2417 33.9254 44.5723 34.7705C44.7275 35.1678 45.1527 35.383 45.559 35.2701C45.9685 35.132 46.1903 34.6831 46.0543 34.2674C45.6553 33.1926 44.9811 32.2447 44.1012 31.5221C44.4918 31.0335 44.8109 30.4903 45.0487 29.9097C46.1871 30.2577 48.437 31.2548 48.437 33.7243C48.437 35.5332 47.8947 37.6898 45.312 37.6898C44.6187 37.7043 43.9424 37.4706 43.4018 37.0298C42.6038 36.4152 41.6262 36.0891 40.6245 36.1036C39.5405 36.1248 38.4796 36.4251 37.5411 36.976C36.8195 37.4182 35.9981 37.6639 35.1558 37.6898C34.4625 37.7043 33.7862 37.4706 33.2455 37.0298C32.4476 36.4152 31.4699 36.0891 30.4683 36.1036C29.5134 36.099 28.5787 36.3822 27.7824 36.9172C26.9569 37.4635 25.9838 37.7337 24.9996 37.6898C24.0154 37.7337 23.0423 37.4635 22.2167 36.9172C21.4205 36.3822 20.4857 36.099 19.5308 36.1036C18.5291 36.0891 17.5515 36.4152 16.7536 37.0298C16.213 37.4706 15.5367 37.7043 14.8433 37.6898C14.001 37.6639 13.1797 37.4182 12.4581 36.976C11.5195 36.4251 10.4585 36.1248 9.37459 36.1036C8.3729 36.0891 7.39531 36.4152 6.59736 37.0298C6.05677 37.4706 5.38049 37.7043 4.6871 37.6898C2.10442 37.6898 1.56215 35.5332 1.56215 33.7243ZM46.8746 46.4138H3.12464V43.2414H46.8746V46.4138ZM8.59339 41.6553C7.88817 41.6535 7.20419 41.4095 6.6525 40.9634C6.10109 40.517 5.71464 39.8942 5.55598 39.1967C6.2469 39.0621 6.8991 38.7718 7.46446 38.3466C8.00575 37.9068 8.68169 37.6742 9.37472 37.6898C10.217 37.7157 11.0384 37.9614 11.76 38.4036C12.6986 38.9545 13.7595 39.2548 14.8435 39.276C15.8452 39.2905 16.8228 38.9644 17.6207 38.3498C18.1613 37.909 18.8376 37.6753 19.531 37.6898C20.2118 37.6848 20.8776 37.8948 21.4356 38.291C22.4986 38.9768 23.741 39.3199 24.9997 39.276C26.2585 39.3199 27.5008 38.9768 28.5638 38.291C29.1218 37.8948 29.7876 37.6848 30.4684 37.6898C31.1618 37.6753 31.8381 37.909 32.3787 38.3498C33.1767 38.9644 34.1543 39.2905 35.1559 39.276C36.24 39.2548 37.3008 38.9545 38.2394 38.4036C38.961 37.9614 39.7824 37.7157 40.6247 37.6898C41.318 37.6753 41.9943 37.909 42.535 38.3498C43.1003 38.7736 43.7529 39.0632 44.4434 39.1967C44.2847 39.8942 43.8983 40.5169 43.3469 40.9634C42.7952 41.4095 42.1112 41.6535 41.406 41.6553H8.59339Z"/>
</svg>
