<svg width="50" height="50" viewBox="0 0 50 50"  fill="#484848" xmlns="http://www.w3.org/2000/svg">
    <path d="M20.3258 11.4276H16.1531L14.4116 2.64664C14.2227 1.694 13.3768 1 12.391 1C11.4134 1 10.5674 1.69395 10.3705 2.64664L8.629 11.4276H4.46432C3.10892 11.4276 2.00004 12.5172 2.00004 13.8489V15.689C2.00004 16.1329 2.36968 16.4961 2.82146 16.4961H3.93034L3.38835 16.9641C2.50935 17.7308 2 18.8287 2 19.9906V45.3894C2 47.6168 3.84018 49.4248 6.10714 49.4248H18.6829C20.9499 49.4248 22.7901 47.6168 22.7901 45.3894V19.9906C22.7901 18.8282 22.2807 17.7308 21.4017 16.9641L20.8597 16.4961H21.9686C22.4204 16.4961 22.79 16.1329 22.79 15.689V13.8489C22.79 12.5172 21.6812 11.4276 20.3258 11.4276ZM11.9884 2.95324C12.0295 2.75939 12.2022 2.61419 12.3911 2.61419C12.5883 2.61419 12.7526 2.75939 12.7937 2.95324L14.4777 11.4276H10.3049L11.9884 2.95324ZM21.1473 19.9906V45.3894C21.1473 46.7211 20.0384 47.8106 18.683 47.8106H6.10717C4.75177 47.8106 3.64289 46.7211 3.64289 45.3894V19.9906C3.64289 19.2967 3.94689 18.6348 4.48082 18.1746L6.4192 16.496H18.3707L20.3091 18.1746C20.8434 18.6347 21.147 19.2966 21.147 19.9906H21.1473ZM21.1473 14.8818H3.64289V13.8488C3.64289 13.4049 4.01253 13.0417 4.46432 13.0417H20.3258C20.7776 13.0417 21.1473 13.4049 21.1473 13.8488V14.8818Z" fill="#484848"/>
    <path d="M12.3912 25.6969C8.76889 25.6969 5.81982 28.5945 5.81982 32.1536C5.81982 35.7127 8.76889 38.6103 12.3912 38.6103C16.0136 38.6103 18.9627 35.7127 18.9627 32.1536C18.9627 28.5945 16.0136 25.6969 12.3912 25.6969ZM12.3912 36.9961C9.67246 36.9961 7.46268 34.8249 7.46268 32.1536C7.46268 29.4823 9.67246 27.3111 12.3912 27.3111C15.11 27.3111 17.3198 29.4823 17.3198 32.1536C17.3198 34.8249 15.11 36.9961 12.3912 36.9961Z" fill="#484848"/>
    <path d="M48.0002 15.6891V13.849C48.0002 12.5173 46.8913 11.4278 45.5359 11.4278H41.3631L39.6216 2.64676C39.4328 1.69412 38.5868 1.00012 37.6091 1.00012C36.6313 1.00012 35.7773 1.69407 35.5886 2.64676L33.847 11.4278H29.6743C28.3189 11.4278 27.21 12.5173 27.21 13.849V15.6891C27.21 16.133 27.5796 16.4962 28.0314 16.4962H29.1403L28.5983 16.9642C27.7112 17.7309 27.21 18.8368 27.21 19.9907V45.3895C27.21 47.6169 29.0501 49.425 31.3171 49.425H43.8929C46.1599 49.425 48 47.6169 48 45.3895V19.9907C48 18.8367 47.4907 17.7309 46.6117 16.9642L46.0697 16.4962H47.1786C47.6304 16.4962 48 16.133 48 15.6891H48.0002ZM37.1986 2.95373C37.2397 2.75988 37.4121 2.61468 37.6094 2.61468C37.8067 2.61468 37.9709 2.75988 38.012 2.95373L39.696 11.4281H35.5232L37.1986 2.95373ZM46.3575 19.9911V45.3899C46.3575 46.7216 45.2486 47.8111 43.8932 47.8111H31.3174C29.962 47.8111 28.8531 46.7216 28.8531 45.3899V19.9911C28.8531 19.2971 29.1571 18.6353 29.6911 18.1751L31.5969 16.5205C31.6049 16.5126 31.6134 16.5043 31.6214 16.4964H43.6058C43.6223 16.5126 43.6223 16.5288 43.6388 16.5367L45.5281 18.1751C46.0532 18.6352 46.3572 19.2971 46.3572 19.9911L46.3575 19.9911ZM46.3575 14.8823H28.8531V13.8493C28.8531 13.4054 29.2228 13.0422 29.6746 13.0422H45.5361C45.9879 13.0422 46.3575 13.4054 46.3575 13.8493V14.8823Z" fill="#484848"/>
    <path d="M37.6085 25.6969C33.9862 25.6969 31.0371 28.5945 31.0371 32.1536C31.0371 35.7127 33.9862 38.6103 37.6085 38.6103C41.2309 38.6103 44.1799 35.7127 44.1799 32.1536C44.1799 28.5945 41.2309 25.6969 37.6085 25.6969ZM37.6085 36.9961C34.8897 36.9961 32.68 34.8249 32.68 32.1536C32.68 29.4823 34.8897 27.3111 37.6085 27.3111C40.3273 27.3111 42.5371 29.4823 42.5371 32.1536C42.5371 34.8249 40.3273 36.9961 37.6085 36.9961Z" fill="#484848"/>
</svg>
