<svg width="50" height="50" viewBox="0 0 50 50"  fill="#484848" xmlns="http://www.w3.org/2000/svg">
    <path d="M24.9999 3C19.4105 3 14.8022 7.05411 13.8667 12.343C13.0594 12.1589 12.2295 12.0255 11.3635 12.0255C5.10069 12.0255 0 17.09 0 23.3076C0 29.1399 4.50187 33.9098 10.2271 34.484V45.8719C10.2275 46.4952 10.736 47 11.3638 47H38.6362C39.264 47 39.7724 46.4952 39.7729 45.8719V34.484C45.4978 33.9095 50 29.14 50 23.3076C50 17.09 44.8993 12.0255 38.6365 12.0255C37.7705 12.0255 36.9406 12.1589 36.1333 12.343C35.1984 7.05411 30.5898 3 25.0001 3H24.9999ZM24.9999 5.25623C29.8735 5.25623 33.8071 9.03141 34.0552 13.806C34.0726 14.1648 34.2609 14.4938 34.5625 14.6921C34.8641 14.8904 35.2426 14.9345 35.5823 14.8109C36.5453 14.4678 37.5599 14.2821 38.636 14.2821C43.6701 14.2821 47.727 18.3094 47.727 23.3076C47.727 28.3057 43.6702 32.3335 38.636 32.3335C38.0086 32.3335 37.4997 32.8388 37.4997 33.4616V44.7438H12.5001V42.4875H34.0907C34.3947 42.4915 34.688 42.3746 34.9044 42.1625C35.1211 41.9504 35.2432 41.6612 35.2432 41.359C35.2432 41.0572 35.1211 40.7676 34.9044 40.5555C34.688 40.3438 34.3947 40.2265 34.0907 40.2309H12.5001V33.4617C12.5001 32.8388 11.9912 32.3336 11.3638 32.3336C6.32967 32.3336 2.2728 28.3058 2.2728 23.3077C2.2728 18.3096 6.32957 14.2821 11.3638 14.2821C12.4398 14.2821 13.4544 14.4679 14.4175 14.811C14.7572 14.9346 15.1357 14.8905 15.4373 14.6922C15.7389 14.4938 15.9272 14.1649 15.9446 13.806C16.1927 9.03146 20.1263 5.25623 24.9999 5.25623Z"/>
</svg>
