<svg width="50" height="50" viewBox="0 0 50 50"  fill="#484848" xmlns="http://www.w3.org/2000/svg">
    <path d="M15.6964 44.0001C10.753 44.0001 4.68585 42.9513 2.28928 39.9556C-0.332297 36.735 1.46504 30.0682 3.93705 24.8258C6.70824 18.9833 11.502 13.0658 15.6961 13.0658C19.8905 13.0658 24.6843 18.983 27.4552 24.9004C29.9269 30.0686 31.6496 36.8095 29.103 40.0301C26.7813 42.9516 20.6392 44 15.6959 44L15.6964 44.0001ZM15.6964 14.5646C12.6254 14.5646 8.35601 19.0585 5.28522 25.4997C2.43908 31.4169 1.68982 36.8095 3.48748 38.9814C5.21019 41.0786 10.004 42.4269 15.7714 42.4269C21.5386 42.4269 26.3326 41.0786 28.0552 38.9814C29.778 36.8092 29.104 31.4164 26.2575 25.4997C23.0369 19.0581 18.7675 14.5646 15.6962 14.5646H15.6964Z"/>
    <path d="M23.3362 42.5775L21.8384 42.4275C22.6623 35.4616 21.6138 33.5892 21.0894 33.065C19.1422 31.1177 11.2776 31.1177 9.33034 33.065C8.88091 33.5144 7.83246 35.3871 8.58141 42.1281L7.08353 42.278C6.48418 36.7354 6.85899 33.3648 8.2819 32.0169C10.8285 29.4703 19.6672 29.4703 22.2138 32.0169C23.5614 33.4398 24.0108 36.8853 23.3369 42.5782L23.3362 42.5775Z" fill="#484848"/>
    <path d="M13.8239 22.7283C13.5993 22.7283 13.3744 22.6533 13.2245 22.4288C13 22.1293 13 21.6049 13.3744 21.38L14.1234 20.7807C14.4229 20.5561 14.9473 20.5561 15.1721 20.9306C15.3967 21.2301 15.3967 21.7545 15.0222 21.9793L14.2733 22.5787C14.1983 22.7283 13.9738 22.7283 13.8239 22.7283Z" fill="#484848"/>
    <path d="M16.6705 26.9976C16.446 26.9976 16.2211 26.9226 16.0712 26.6981C15.8466 26.3986 15.8466 25.8742 16.2211 25.6493L16.97 25.0499C17.2695 24.8254 17.7939 24.8254 18.0188 25.1999C18.2433 25.4994 18.2433 26.0238 17.8689 26.2486L17.1199 26.848C17.045 26.9976 16.8951 26.9976 16.6705 26.9976Z" fill="#484848"/>
    <path d="M11.5773 27.2977C11.3527 27.2977 11.1279 27.2228 10.9779 26.9982C10.7534 26.6984 10.7534 26.249 11.1279 26.0244L11.8768 25.4251C12.1763 25.2005 12.7007 25.2005 12.9255 25.575C13.1501 25.8745 13.1501 26.3989 12.7756 26.6238L12.0267 27.2231C11.8768 27.2977 11.7268 27.2977 11.5773 27.2977Z" fill="#484848"/>
    <path d="M34.2725 37.9335C32.6248 37.9335 31.052 37.8585 29.4788 37.634L29.7033 36.1361C33.4483 36.6605 37.6427 36.5106 41.0131 35.7616C43.6347 35.1623 45.657 34.1888 46.5558 32.9904C48.2785 30.8183 47.5296 25.3505 44.758 19.5087C41.687 13.0672 37.3427 8.57366 34.3468 8.57366C31.2758 8.57366 27.0064 13.0676 23.9356 19.5087L22.5127 18.7591C25.3588 12.9169 30.0777 7 34.2718 7C38.4662 7 43.26 12.9172 46.0309 18.8346C48.5026 24.0028 50.2253 30.7438 47.6787 33.9643C46.4803 35.3875 44.3081 36.5859 41.3121 37.2599C39.1402 37.7093 36.7432 37.9342 34.2715 37.9342L34.2725 37.9335Z" fill="#484848"/>
    <path d="M41.9125 36.5847L40.4146 36.4348C41.2385 29.4688 40.1901 27.5965 39.6657 27.0722C37.7181 25.125 30.003 25.05 27.9057 26.9973L26.8569 25.8739C29.4785 23.4022 38.1667 23.4771 40.6388 25.9488C42.137 27.4467 42.5115 30.8922 41.9121 36.5847L41.9125 36.5847Z" fill="#484848"/>
    <path d="M32.3995 16.7365C32.175 16.7365 31.9501 16.6615 31.8002 16.437C31.5757 16.1374 31.5757 15.6131 31.9501 15.3882L32.699 14.7888C32.9986 14.5643 33.5229 14.5643 33.7478 14.9388C33.9723 15.2383 33.9723 15.7627 33.5979 15.9875L32.849 16.5869C32.699 16.6615 32.5491 16.7365 32.3995 16.7365Z" fill="#484848"/>
    <path d="M35.2457 21.0056C35.0212 21.0056 34.7963 20.9307 34.6464 20.7061C34.4218 20.4066 34.4218 19.8822 34.7963 19.6574L35.5452 19.058C35.8447 18.8335 36.3691 18.8335 36.594 19.2079C36.8185 19.5074 36.8185 20.0318 36.4441 20.2567L35.6951 20.856C35.5452 20.9306 35.3953 21.0056 35.2457 21.0056Z" fill="#484848"/>
    <path d="M30.0778 21.3048C29.8532 21.3048 29.6283 21.2299 29.4784 21.0053C29.2539 20.7058 29.2539 20.1814 29.6283 19.9566L30.3773 19.3572C30.6768 19.1327 31.2012 19.1327 31.426 19.5071C31.6506 19.8066 31.6506 20.331 31.2761 20.5559L30.5272 21.1552C30.4522 21.2298 30.3023 21.3048 30.0778 21.3048Z" fill="#484848"/>
</svg>
