<svg width="50" height="50" viewBox="0 0 50 50"  fill="#484848" xmlns="http://www.w3.org/2000/svg">
    <path d="M47.0421 43.8214H36.954C44.3302 40.7833 49.692 31.8876 49.692 21.4063C49.692 20.9446 49.316 20.5706 48.8563 20.5706H32.1063C31.6446 18.4938 29.8807 16.4918 27.3964 15.3175C24.3978 13.907 21.3012 14.0994 19.4874 15.5914L4.87057 8.0245C3.38283 7.32452 1.76774 7.71316 1.19299 8.91688C0.624533 10.1206 1.34971 11.6167 2.87103 12.3353L17.9768 18.7901C17.9768 19.3732 18.0772 19.9665 18.305 20.5724H13.9211C13.4593 20.5724 13.0854 20.9463 13.0854 21.4081C13.0854 31.8894 18.4453 40.7846 25.8234 43.8232L14.0552 43.8235C13.5935 43.8235 13.2195 44.1996 13.2195 44.6592C13.2195 45.1189 13.5935 45.4949 14.0552 45.4949H47.0429C47.5047 45.4949 47.8787 45.1189 47.8787 44.6592C47.8787 44.1996 47.5047 43.8214 47.0429 43.8214L47.0421 43.8214ZM3.55611 10.8104C2.90825 10.5054 2.56575 9.92436 2.70361 9.63192C2.84774 9.33108 3.5019 9.22439 4.13091 9.52103L18.4003 16.9119C18.3814 16.9497 18.352 16.9766 18.3352 17.0123C18.3188 17.0435 18.3167 17.0812 18.3041 17.1124L3.55611 10.8104ZM19.8467 17.7291C20.7139 15.9027 23.8419 15.4892 26.6817 16.8305C28.5207 17.6997 29.8913 19.1291 30.3677 20.5707H20.1309C19.573 19.5447 19.4642 18.5397 19.8465 17.7292L19.8467 17.7291ZM14.7691 22.2424H48.0076C47.6711 33.9103 40.3473 43.2676 31.3893 43.2694C22.4295 43.2652 15.1032 33.9103 14.7691 22.2424Z" fill="#484848"/>
    <path d="M33.4935 18.5854C33.6166 18.9261 33.9364 19.1371 34.2792 19.1371C34.3733 19.1371 34.4695 19.1224 34.5632 19.087C34.9977 18.9303 35.2216 18.4518 35.0649 18.0173C34.6741 16.9413 33.9031 13.7465 34.996 11.9263C36.7199 9.05327 35.1296 4.72777 35.0628 4.54374C34.8998 4.11137 34.4233 3.88958 33.9846 4.0547C33.5523 4.21771 33.3326 4.69836 33.4956 5.13077C33.8864 6.1652 34.6532 9.24707 33.5624 11.0629C31.8406 13.9318 33.4246 18.3972 33.4935 18.5854Z" fill="#484848"/>
    <path d="M37.6722 18.5854C37.7953 18.9261 38.1151 19.1371 38.4579 19.1371C38.552 19.1371 38.6482 19.1224 38.7419 19.087C39.1764 18.9303 39.4003 18.4518 39.2436 18.0173C38.8528 16.9413 38.0818 13.7465 39.1747 11.9263C40.8986 9.05327 39.3083 4.72777 39.2415 4.54374C39.0785 4.11137 38.5999 3.88958 38.1634 4.0547C37.731 4.21771 37.5113 4.69836 37.6743 5.13077C38.0651 6.1652 38.8319 9.24707 37.7411 11.0629C36.0193 13.9318 37.6033 18.3972 37.6722 18.5854Z" fill="#484848"/>
    <path d="M41.8519 18.5854C41.975 18.9261 42.2948 19.1371 42.6376 19.1371C42.7317 19.1371 42.8279 19.1224 42.9216 19.087C43.3561 18.9303 43.58 18.4518 43.4233 18.0173C43.0325 16.9413 42.2615 13.7465 43.3544 11.9263C45.0783 9.05327 43.488 4.72777 43.4212 4.54374C43.2582 4.11137 42.7796 3.88958 42.343 4.0547C41.9107 4.21771 41.691 4.69836 41.854 5.13077C42.2448 6.1652 43.0116 9.24707 41.9208 11.0629C40.199 13.9318 41.783 18.3972 41.8519 18.5854Z" fill="#484848"/>
</svg>
