<svg width="50" height="50" viewBox="0 0 50 50"  fill="#484848" xmlns="http://www.w3.org/2000/svg">
    <g clip-path="url(#clip0_1_1953)">
        <path d="M49.9429 26.4202L45.9614 15.6768C45.7908 15.2244 45.3925 14.9416 44.8806 14.9416H42.9468L46.8144 5.66831C47.4401 4.19826 46.7006 2.55827 45.2786 1.99313C43.7998 1.37112 42.1501 2.10633 41.5816 3.51993L36.747 14.9419H34.9266L39.9322 2.89794C40.5579 1.42789 39.8183 -0.212098 38.3963 -0.777239C36.9175 -1.39925 35.2678 -0.664039 34.6993 0.74956L33.8463 2.8416L28.7836 14.9421H27.9305C26.224 9.11802 20.081 5.78201 14.2225 7.47803C10.5822 8.55248 7.73818 11.3228 6.71414 14.9421H5.1215C4.60968 14.9421 4.21133 15.2249 4.04068 15.6773L0.0591943 26.4207C-0.0546772 26.7599 0.00245774 27.1559 0.173066 27.4383C0.343675 27.7779 0.684893 27.9475 1.08324 27.9475H6.828L11.549 47.3988C11.9474 48.9256 13.3122 50 14.8481 50H34.9835C36.5762 50 37.9414 48.9256 38.2826 47.3988L43.1176 27.9475H48.8623C49.2607 27.9475 49.6019 27.7779 49.7725 27.4387C49.9998 27.1559 50.057 26.7599 49.9431 26.4207L49.9429 26.4202ZM14.393 23.9886C14.1657 23.9886 13.9946 23.9322 13.7673 23.819L8.07932 17.2033H41.8091L36.1211 23.819C36.0076 23.9322 35.7799 23.9886 35.5525 23.9886H14.393ZM13.824 14.9417C15.5305 13.0193 18.4884 12.8497 20.479 14.5457C20.6496 14.6589 20.7635 14.8285 20.8773 14.9417H13.824ZM43.9135 4.08519C44.0274 4.02879 44.198 4.02879 44.3686 4.08519C44.6531 4.19839 44.8237 4.5376 44.6531 4.82039L44.2547 5.89443L43.1739 5.44202L43.629 4.36758C43.6857 4.25477 43.7996 4.14159 43.9135 4.08519ZM42.3209 7.5344L43.3445 7.9868L40.4437 14.9417H39.1924L42.3209 7.5344ZM37.0879 1.25797C37.2018 1.20157 37.3724 1.20157 37.543 1.25797C37.8275 1.37117 37.9981 1.71038 37.8842 1.99317L37.4291 3.06721L36.3483 2.61481L36.8034 1.59721C36.8601 1.42761 36.974 1.31438 37.0879 1.25797ZM35.4953 4.70718L36.5189 5.15958L32.4806 14.9417H31.2293L35.4953 4.70718ZM17.2937 9.28717C20.934 9.28717 24.2331 11.5487 25.5412 14.9416H23.5502C21.8437 11.4924 17.6349 10.0788 14.2219 11.7752C12.8567 12.4536 11.7191 13.528 11.0367 14.9416H9.04613C10.3543 11.5487 13.6533 9.28717 17.2936 9.28717H17.2937ZM2.73247 25.685L4.894 19.861L6.316 25.685H2.73247ZM36.1778 46.8892C36.064 47.398 35.5521 47.794 35.0403 47.7372L14.9049 47.7376C14.393 47.7376 13.8812 47.3983 13.7674 46.8895L7.1692 19.5786L12.1176 25.3463C12.1744 25.4027 12.2315 25.4595 12.2883 25.5159C12.8572 25.9683 13.5964 26.1943 14.3359 26.1943H35.5521C36.2917 26.1943 37.0309 25.9683 37.5998 25.5159C37.6565 25.4595 37.7137 25.4027 37.7704 25.3463L42.7189 19.5786L36.1778 46.8892ZM43.629 25.685L45.051 19.861L47.2125 25.685H43.629Z" fill="#484848"/>
    </g>
    <defs>
        <clipPath id="clip0_1_1953">
            <rect width="50" height="50" fill="white"/>
        </clipPath>
    </defs>
</svg>
