<svg width="25" height="25" viewBox="0 0 17 17" fill="none" xmlns="http://www.w3.org/2000/svg">
<path d="M8.5 0C3.80792 0 0 3.80792 0 8.5C0 13.1921 3.80792 17 8.5 17C13.1921 17 17 13.1921 17 8.5C17 3.80792 13.1921 0 8.5 0ZM11.9128 9.32458H9.32446V11.9128C9.32446 12.3696 8.95686 12.7373 8.5 12.7373C8.04314 12.7373 7.67554 12.3696 7.67554 11.9128V9.32458H5.08717C4.63034 9.32458 4.26271 8.95697 4.26271 8.50011C4.26271 8.04326 4.63032 7.67565 5.08717 7.67565H7.67539L7.67554 5.08729C7.67554 4.63045 8.04314 4.26283 8.5 4.26283C8.95685 4.26283 9.32446 4.63043 9.32446 5.08729V7.6755H11.9127C12.3695 7.6755 12.7371 8.04311 12.7371 8.49996C12.7373 8.95695 12.3676 9.32454 11.9128 9.32454L11.9128 9.32458Z" fill="#979494"/>
</svg>
