<svg width="21" height="23" viewBox="0 0 21 23" fill="none" xmlns="http://www.w3.org/2000/svg">
<path fill-rule="evenodd" clip-rule="evenodd" d="M16.1202 4.69816e-06C16.4135 4.69816e-06 16.6946 0.11639 16.9018 0.32363L20.676 4.0978C21.1075 4.52949 21.1075 5.2293 20.676 5.66098L9.35383 16.9831C9.17101 17.1659 8.92973 17.279 8.67214 17.3023L4.52068 17.6798C4.19409 17.7094 3.87101 17.5924 3.63919 17.3604C3.40715 17.1286 3.29021 16.8055 3.32 16.4789L3.69728 12.3274C3.72078 12.0699 3.83365 11.8286 4.01647 11.6458L15.3391 0.323625C15.5463 0.116386 15.8274 0 16.1205 0L16.1202 4.69816e-06ZM14.2867 4.50191L16.4977 6.7129L18.3314 4.87939L16.1202 2.6684L14.2867 4.50191ZM14.9345 8.27608L12.7235 6.06508L5.86259 12.926L5.64147 15.3581L8.07359 15.137L14.9345 8.27608Z" fill="#979494"/>
<path fill-rule="evenodd" clip-rule="evenodd" d="M13.2633 22.1054H0V19.895H13.2633V22.1054Z" fill="#979494"/>
</svg>
